<svg xmlns="http://www.w3.org/2000/svg" viewBox="0 0 1043.83 579.9"><defs><style>.cls-1{fill:#2c5ae6;}.cls-2{fill:#10b4e9;}.cls-3{fill:#69d8e9;}</style></defs><g id="Layer_2" data-name="Layer 2"><g id="Layer_1-2" data-name="Layer 1"><path class="cls-1" d="M0,298.09H12.79v72.77H0Z"/><path class="cls-1" d="M31.81,316H44.39v8.52c3.53-5.19,8.62-9.66,17.15-9.66,12.37,0,19.54,8.31,19.54,21.1v34.93H68.5V339.67c0-8.52-4.26-13.41-11.74-13.41-7.28,0-12.37,5.09-12.37,13.62v31H31.81Z"/><path class="cls-1" d="M97.29,316h12.58v8.52c3.54-5.19,8.63-9.66,17.15-9.66,12.38,0,19.55,8.31,19.55,21.1v34.93H134V339.67c0-8.52-4.26-13.41-11.75-13.41-7.27,0-12.37,5.09-12.37,13.62v31H97.29Z"/><path class="cls-1" d="M159.77,343.72v-.2c0-15.7,12.47-28.69,29.31-28.69s29.21,12.78,29.21,28.48v.21c0,15.59-12.47,28.58-29.42,28.58C172.14,372.1,159.77,359.32,159.77,343.72Zm45.94,0v-.2c0-9.67-7-17.68-16.84-17.68-10.08,0-16.52,7.91-16.52,17.47v.21c0,9.56,7,17.67,16.73,17.67C199.27,361.19,205.71,353.18,205.71,343.72Z"/><path class="cls-1" d="M223.8,316h13.51l14.77,40.33L266.94,316h13.2l-22.45,55.3H246.36Z"/><path class="cls-1" d="M322.86,370.86V364.1c-3.74,4.47-9.45,7.9-17.77,7.9-10.4,0-19.54-5.93-19.54-16.94v-.21c0-12.16,9.46-18,22.24-18A46.25,46.25,0,0,1,323,339.15v-1c0-7.59-4.78-11.74-13.51-11.74a38.19,38.19,0,0,0-15.7,3.43l-3.43-10.09a47.09,47.09,0,0,1,20.89-4.57c16.22,0,24.12,8.52,24.12,23.18v32.54Zm.32-23a36.18,36.18,0,0,0-12.58-2.18c-7.9,0-12.58,3.22-12.58,8.52v.21c0,5.2,4.68,8.11,10.6,8.11,8.32,0,14.56-4.68,14.56-11.54Z"/><path class="cls-1" d="M353.43,355.68v-28.9h-7V316h7V300.9H366V316h14.76v10.81H366V353.7c0,4.89,2.5,6.86,6.76,6.86a16.89,16.89,0,0,0,7.8-1.87V369a22.11,22.11,0,0,1-11.33,2.8C360,371.79,353.43,367.74,353.43,355.68Z"/><path class="cls-1" d="M400.67,295.6h1.56a6,6,0,0,1,6,6h0a6,6,0,0,1-6,6h-1.56a6,6,0,0,1-6-6h0A6,6,0,0,1,400.67,295.6ZM395.21,316h12.58v54.89H395.21Z"/><path class="cls-1" d="M422.24,343.72v-.2c0-15.7,12.47-28.69,29.31-28.69s29.21,12.78,29.21,28.48v.21c0,15.59-12.47,28.58-29.42,28.58C434.61,372.1,422.24,359.32,422.24,343.72Zm45.94,0v-.2c0-9.67-7-17.68-16.84-17.68-10.08,0-16.52,7.91-16.52,17.47v.21c0,9.56,7,17.67,16.73,17.67C461.74,361.19,468.18,353.18,468.18,343.72Z"/><path class="cls-1" d="M494.59,316h12.58v8.52c3.53-5.19,8.62-9.66,17.15-9.66,12.37,0,19.54,8.31,19.54,21.1v34.93H531.28V339.67c0-8.52-4.26-13.41-11.74-13.41-7.28,0-12.37,5.09-12.37,13.62v31H494.59Z"/><path class="cls-1" d="M634.5,362.44c-6.23,5.82-13.51,9.46-22.35,9.46-13.51,0-23.7-8.22-23.7-20.79v-.21c0-9.36,5.51-16.12,15.49-20.38-4.16-5.3-6-9.87-6-15.17v-.21c0-9.77,7.9-18.3,20.9-18.3,11.53,0,19.33,7.8,19.33,17.57v.21c0,9.56-6.34,15.28-16,18.92l12.48,12.68a106.05,106.05,0,0,0,7.79-14l9.67,5.09a114.1,114.1,0,0,1-9.88,16.63l11.44,11.64-9.46,6.76ZM627.23,355,611,338.42c-6.76,2.91-9.67,7.38-9.67,12.06v.21c0,6.13,5.1,10.6,12.16,10.6C618.49,361.29,623.07,358.9,627.23,355Zm-.42-39.6v-.21c0-4.89-3.43-8.21-8.32-8.21-5.19,0-8.62,3.63-8.62,8.73v.21c0,3.63,1.45,6.34,5.51,10.81C622.86,324,626.81,320.54,626.81,315.35Z"/><path class="cls-2" d="M805.35,160.05l-23.84-13.77V71.06l37.61,65.14Zm-19.18-16.46,17.47,10.09,10.1-17.48L786.17,88.45Z"/><path class="cls-2" d="M862.34,372.75l-37.61-65.14,13.77-23.85,23.84,13.77Zm-32.23-65.14,27.57,47.75V300.22l-17.47-10.09Z"/><path class="cls-2" d="M776.64,176.63H749.1l-37.61-65.15,65.15,37.61ZM751.79,172H772V151.78L724.22,124.2Z"/><path class="cls-2" d="M932.35,332.34,867.2,294.73V267.19h27.54ZM871.86,292l47.77,27.57-27.58-47.76H871.86Z"/><path class="cls-2" d="M736.22,219.1l-65.14-37.61H746.3l13.77,23.84Zm-47.75-32.95,47.75,27.57,17.48-10.09-10.09-17.48Z"/><path class="cls-2" d="M972.77,262.32H897.55l-13.77-23.84,23.85-13.77Zm-72.53-4.66h55.14l-47.75-27.57-17.48,10.1Z"/><path class="cls-2" d="M746.3,262.32H671.08l65.14-37.61,23.85,13.77Zm-57.83-4.66h55.14l10.09-17.47-17.48-10.1Z"/><path class="cls-2" d="M907.63,219.1l-23.85-13.77,13.77-23.84h75.22Zm-17.48-15.47,17.48,10.09,47.75-27.57H900.24Z"/><path class="cls-2" d="M838.5,160.05,824.73,136.2l37.61-65.14v75.22Zm-8.39-23.85,10.1,17.48,17.47-10.09V88.45Z"/><path class="cls-2" d="M711.49,332.34l37.61-65.15h27.54v27.54Zm40.3-60.49-27.57,47.76L772,292V271.85Z"/><path class="cls-2" d="M781.51,372.75V297.53l23.84-13.77,13.77,23.85Zm4.66-72.53v55.14l27.57-47.75-10.1-17.48Z"/><path class="cls-2" d="M894.74,176.63H867.2V149.09l65.15-37.61ZM871.86,172h20.19l27.58-47.77-47.77,27.58Z"/><path class="cls-1" d="M821.92,155.24l9.83,17,2.38,4.12,4.12-2.38,17-9.82v24.4h24.4l-9.82,17-2.38,4.12,4.12,2.38,17,9.83-17,9.82-4.12,2.38,2.38,4.12,9.82,17h-24.4v24.4l-17-9.82-4.12-2.38-2.38,4.13-9.83,17-9.82-17-2.38-4.13-4.12,2.38-17,9.82v-24.4H764.2l9.81-17,2.39-4.12-4.13-2.38-17-9.82,17-9.83,4.13-2.38L774,205.58l-9.81-17h24.4v-24.4l17,9.82,4.12,2.38,2.38-4.12,9.82-17m0-9.52L808,169.88l-24.14-13.95v27.89H756L769.89,208l-24.15,13.95,24.15,13.94L756,260h27.89v27.89L808,273.94l13.94,24.15,14-24.15L860,287.88V260H887.9L874,235.85l24.15-13.94L874,208l13.94-24.14H860V155.93l-24.14,13.95-14-24.16Z"/><path class="cls-3" d="M821.92,76,805.86,48.2,821.92,0,838,48.2Zm-11-28.34,11,19,11-19-11-33Z"/><path class="cls-3" d="M749,95.57,721.15,79.5,711,29.73l38,33.71Zm-23.68-19,19,11v-22l-26-23.05Z"/><path class="cls-3" d="M663.45,149l-33.71-38,49.78,10.19L695.58,149Zm-21-30.65,23,26h22l-11-19Z"/><path class="cls-3" d="M1014.1,332.86l-49.78-10.19-16.06-27.82h32.13Zm-46.79-14.33,34,7-23.05-26h-22Z"/><path class="cls-3" d="M995.63,238,967.8,221.9l27.82-16.06,48.21,16.06ZM977.12,221.9l19,11,32.95-11-32.95-11Z"/><path class="cls-3" d="M600,221.9l48.2-16.06L676,221.9,648.22,238Zm47.69-11-33,11,32.94,11,19-11Z"/><path class="cls-3" d="M980.39,149H948.26l16.06-27.82L1014.1,111Zm-24.06-4.67h22l23.05-26-34,7Z"/><path class="cls-3" d="M894.86,95.57V63.44l38-33.71L922.69,79.5Zm4.66-30v22l19-11,7-34Z"/><path class="cls-3" d="M922.69,364.31l10.18,49.77-38-33.71V348.25Zm2.81,37-7-34-19-11v22Z"/><path class="cls-1" d="M639.18,506H652v61.12h38.25v11.65h-51Z"/><path class="cls-1" d="M736.69,578.76V572c-3.75,4.47-9.46,7.9-17.78,7.9-10.4,0-19.54-5.93-19.54-16.95v-.2c0-12.17,9.46-18,22.24-18a46.21,46.21,0,0,1,15.18,2.29v-1c0-7.59-4.78-11.75-13.51-11.75a38.35,38.35,0,0,0-15.7,3.43l-3.43-10.08A47.09,47.09,0,0,1,725,523c16.22,0,24.12,8.52,24.12,23.18v32.54Zm.31-23a35.9,35.9,0,0,0-12.58-2.18c-7.9,0-12.58,3.22-12.58,8.52v.21c0,5.2,4.68,8.11,10.6,8.11,8.32,0,14.56-4.68,14.56-11.54Z"/><path class="cls-1" d="M777.74,570.23v8.53H765.17V502.87h12.57V533c4.06-5.72,9.78-10.29,18.61-10.29,13,0,25.57,10.29,25.57,28.48v.21c0,18.19-12.47,28.48-25.57,28.48C787.31,579.9,781.59,575.32,777.74,570.23Zm31.4-18.81v-.21c0-10.61-7.18-17.57-15.7-17.57s-16,7.07-16,17.57v.21c0,10.6,7.49,17.56,16,17.56S809.14,562.23,809.14,551.42Z"/><path class="cls-1" d="M0,402H54v11.43H12.79v18.92H49.27v11.44H12.79v19.54H54.47v11.44H0Z"/><path class="cls-1" d="M69.23,419.92H81.81v8.52c3.53-5.19,8.63-9.66,17.15-9.66,12.37,0,19.54,8.31,19.54,21.1v34.93H105.92V443.62c0-8.52-4.26-13.41-11.74-13.41-7.28,0-12.37,5.09-12.37,13.62v31H69.23Z"/><path class="cls-1" d="M137.32,459.63v-28.9h-7V419.92h7V404.85h12.57v15.07h14.77v10.81H149.89v26.92c0,4.89,2.5,6.86,6.76,6.86a16.89,16.89,0,0,0,7.8-1.87v10.29a22,22,0,0,1-11.33,2.81C143.87,475.74,137.32,471.69,137.32,459.63Z"/><path class="cls-1" d="M178.38,419.92H191v12.37c3.43-8.21,9.78-13.83,19.44-13.41v13.31h-.73c-11,0-18.71,7.17-18.71,21.72v20.9H178.38Z"/><path class="cls-1" d="M217.46,447.57v-.21c0-15.69,11.12-28.58,26.82-28.58,17.46,0,26.3,13.72,26.3,29.52,0,1.14-.1,2.28-.21,3.53H230c1.35,8.94,7.69,13.93,15.8,13.93,6.13,0,10.5-2.29,14.86-6.55l7.39,6.55c-5.2,6.24-12.37,10.29-22.46,10.29C229.73,476.05,217.46,464.51,217.46,447.57Zm40.65-4.05c-.84-8.11-5.62-14.45-13.93-14.45-7.7,0-13.1,5.92-14.24,14.45Z"/><path class="cls-1" d="M284.3,419.92h12.58v9.15c4.05-5.72,9.77-10.29,18.6-10.29,13,0,25.58,10.29,25.58,28.48v.21c0,18.19-12.48,28.48-25.58,28.48-9,0-14.76-4.58-18.6-9.67v25.16H284.3Zm44,27.55v-.21c0-10.61-7.17-17.57-15.7-17.57s-16,7.07-16,17.57v.21c0,10.6,7.48,17.56,16,17.56S328.27,458.28,328.27,447.47Z"/><path class="cls-1" d="M355,419.92h12.57v12.37c3.43-8.21,9.77-13.83,19.44-13.41v13.31h-.73c-11,0-18.71,7.17-18.71,21.72v20.9H355Z"/><path class="cls-1" d="M394.07,447.57v-.21c0-15.69,11.12-28.58,26.82-28.58,17.46,0,26.3,13.72,26.3,29.52,0,1.14-.1,2.28-.21,3.53H406.65c1.35,8.94,7.69,13.93,15.8,13.93,6.13,0,10.5-2.29,14.86-6.55l7.38,6.55c-5.19,6.24-12.37,10.29-22.45,10.29C406.34,476.05,394.07,464.51,394.07,447.57Zm40.65-4.05c-.84-8.11-5.62-14.45-13.93-14.45-7.7,0-13.1,5.92-14.25,14.45Z"/><path class="cls-1" d="M460.91,419.92h12.58v8.52c3.53-5.19,8.63-9.66,17.15-9.66,12.37,0,19.54,8.31,19.54,21.1v34.93H497.6V443.62c0-8.52-4.26-13.41-11.74-13.41-7.28,0-12.37,5.09-12.37,13.62v31H460.91Z"/><path class="cls-1" d="M523.38,447.57v-.21c0-15.69,11.13-28.58,26.82-28.58,17.47,0,26.3,13.72,26.3,29.52,0,1.14-.1,2.28-.21,3.53H536c1.35,8.94,7.69,13.93,15.8,13.93,6.13,0,10.5-2.29,14.87-6.55l7.38,6.55c-5.2,6.24-12.37,10.29-22.46,10.29C535.65,476.05,523.38,464.51,523.38,447.57ZM564,443.52c-.83-8.11-5.62-14.45-13.93-14.45-7.69,0-13.1,5.92-14.24,14.45Z"/><path class="cls-1" d="M589.6,454.85V419.92h12.58V451.1c0,8.53,4.26,13.41,11.74,13.41,7.28,0,12.37-5.09,12.37-13.61v-31h12.58v54.89H626.29v-8.53c-3.53,5.2-8.63,9.67-17.15,9.67C596.77,476,589.6,467.63,589.6,454.85Z"/><path class="cls-1" d="M655.71,419.92h12.58v12.37c3.43-8.21,9.77-13.83,19.44-13.41v13.31H687c-11,0-18.71,7.17-18.71,21.72v20.9H655.71Z"/><path class="cls-1" d="M705.86,399.54h1.56a6,6,0,0,1,6,6h0a6,6,0,0,1-6,6h-1.56a6,6,0,0,1-6-6h0A6,6,0,0,1,705.86,399.54Zm-5.45,20.38H713v54.89H700.41Z"/><path class="cls-1" d="M764,474.81v-6.76c-3.74,4.47-9.46,7.9-17.77,7.9-10.4,0-19.54-5.93-19.54-16.95v-.2c0-12.17,9.45-18,22.24-18a46.25,46.25,0,0,1,15.18,2.29v-1c0-7.59-4.78-11.75-13.52-11.75a38.34,38.34,0,0,0-15.69,3.43l-3.43-10.08a47.09,47.09,0,0,1,20.89-4.57c16.22,0,24.12,8.52,24.12,23.18v32.54Zm.32-23a35.94,35.94,0,0,0-12.58-2.18c-7.9,0-12.58,3.22-12.58,8.52v.21c0,5.2,4.68,8.11,10.6,8.11,8.32,0,14.56-4.68,14.56-11.54Z"/><path class="cls-1" d="M794.58,459.63v-28.9h-7V419.92h7V404.85h12.58v15.07h14.76v10.81H807.16v26.92c0,4.89,2.5,6.86,6.76,6.86a16.89,16.89,0,0,0,7.8-1.87v10.29a22,22,0,0,1-11.34,2.81C801.13,475.74,794.58,471.69,794.58,459.63Z"/></g></g></svg>