<svg id="Layer_1" data-name="Layer 1" xmlns="http://www.w3.org/2000/svg" xmlns:xlink="http://www.w3.org/1999/xlink" width="228.3234" height="44.5312" viewBox="0 0 228.3234 44.5312"><defs><style>.cls-1{fill:none;}.cls-2{clip-path:url(#clip-path);}.cls-3{fill:#4e5171;}.cls-4{fill:#4d5071;}.cls-5{fill:#4c4f71;}.cls-6{fill:#4b4e71;}.cls-7{fill:#4a4e71;}.cls-8{fill:#494d71;}.cls-9{fill:#484c71;}.cls-10{fill:#474b71;}.cls-11{fill:#464a71;}.cls-12{fill:#454971;}.cls-13{fill:#444871;}.cls-14{fill:#434771;}.cls-15{fill:#424671;}.cls-16{fill:#414571;}.cls-17{fill:#404471;}.cls-18{fill:#3f4371;}.cls-19{fill:#3e4271;}.cls-20{fill:#3d4271;}.cls-21{fill:#3c4171;}.cls-22{fill:#3b4071;}.cls-23{fill:#3a3f71;}.cls-24{fill:#393e71;}.cls-25{fill:#383d71;}.cls-26{fill:#373c71;}.cls-27{fill:#363b71;}.cls-28{fill:#353a71;}.cls-29{fill:#343971;}.cls-30{fill:#333871;}.cls-31{fill:#323771;}.cls-32{fill:#313671;}.cls-33{fill:#303571;}.cls-34{fill:#2f3571;}.cls-35{fill:#2e3471;}.cls-36{fill:#2d3371;}.cls-37{fill:#2c3271;}.cls-38{fill:#2b3171;}.cls-39{fill:#2a3071;}.cls-40{fill:#292f71;}.cls-41{fill:#ffde4f;}.cls-42{fill:#fedd4f;}.cls-43{fill:#fddc50;}.cls-44{fill:#fcdc50;}.cls-45{fill:#fbdb50;}.cls-46{fill:#fada50;}.cls-47{fill:#f9d951;}.cls-48{fill:#f8d951;}.cls-49{fill:#f7d851;}.cls-50{fill:#f6d751;}.cls-51{fill:#f5d652;}.cls-52{fill:#f4d652;}.cls-53{fill:#f3d552;}.cls-54{fill:#f2d452;}.cls-55{fill:#f1d353;}.cls-56{fill:#f0d353;}.cls-57{fill:#efd253;}.cls-58{fill:#eed153;}.cls-59{fill:#edd054;}.cls-60{fill:#eccf54;}.cls-61{fill:#ebcf54;}.cls-62{fill:#eace54;}.cls-63{fill:#e9cd55;}.cls-64{fill:#e8cc55;}.cls-65{fill:#e7cc55;}.cls-66{fill:#e6cb55;}.cls-67{fill:#e5ca56;}.cls-68{fill:#e4c956;}.cls-69{fill:#e3c956;}.cls-70{fill:#e2c856;}.cls-71{fill:#e1c757;}.cls-72{fill:#e0c657;}.cls-73{fill:#dfc657;}.cls-74{fill:#dec557;}.cls-75{fill:#ddc458;}.cls-76{fill:#dcc358;}.cls-77{fill:#dbc358;}.cls-78{fill:#dac258;}.cls-79{fill:#d9c159;}.cls-80{fill:#d8c059;}.cls-81{fill:#d7bf59;}.cls-82{fill:#d6bf59;}.cls-83{fill:#d5be5a;}.cls-84{fill:#d4bd5a;}.cls-85{fill:#d3bc5a;}.cls-86{fill:#d2bc5a;}.cls-87{fill:#d1bb5b;}.cls-88{fill:#d0ba5b;}.cls-89{fill:#cfb95b;}.cls-90{fill:#ceb95b;}.cls-91{fill:#cdb85c;}.cls-92{fill:#ccb75c;}.cls-93{fill:#cbb65c;}.cls-94{fill:#cab65c;}.cls-95{fill:#c9b55d;}.cls-96{fill:#c8b45d;}.cls-97{fill:#c7b35d;}.cls-98{fill:#c6b25d;}.cls-99{fill:#c5b25e;}.cls-100{fill:#c4b15e;}.cls-101{fill:#c3b05e;}.cls-102{fill:#c2af5e;}.cls-103{fill:#c1af5f;}.cls-104{fill:#c0ae5f;}.cls-105{fill:#bfad5f;}.cls-106{fill:#beac5f;}.cls-107{fill:#bcac60;}.cls-108{fill:#bbab60;}.cls-109{fill:#baaa60;}.cls-110{fill:#b9a960;}.cls-111{fill:#b8a961;}.cls-112{fill:#b7a861;}.cls-113{fill:#b6a761;}.cls-114{fill:#b5a661;}.cls-115{fill:#b4a662;}.cls-116{fill:#b3a562;}.cls-117{fill:#b2a462;}.cls-118{fill:#b1a362;}.cls-119{fill:#b0a263;}.cls-120{fill:#afa263;}.cls-121{fill:#aea163;}.cls-122{fill:#ada063;}.cls-123{fill:#ac9f64;}.cls-124{fill:#ab9f64;}.cls-125{fill:#aa9e64;}.cls-126{fill:#a99d64;}.cls-127{fill:#a89c65;}.cls-128{fill:#a79c65;}.cls-129{fill:#a69b65;}.cls-130{fill:#a59a65;}.cls-131{fill:#a49966;}.cls-132{fill:#a39966;}.cls-133{fill:#a29866;}.cls-134{fill:#a19766;}.cls-135{fill:#a09667;}.cls-136{fill:#9f9567;}.cls-137{fill:#9e9567;}.cls-138{fill:#9d9467;}.cls-139{fill:#9c9368;}.cls-140{fill:#9b9268;}.cls-141{fill:#9a9268;}.cls-142{fill:#999168;}.cls-143{fill:#989069;}.cls-144{fill:#978f69;}.cls-145{fill:#968f69;}.cls-146{fill:#958e69;}.cls-147{fill:#948d6a;}.cls-148{fill:#938c6a;}.cls-149{fill:#928c6a;}.cls-150{fill:#918b6a;}.cls-151{fill:#908a6b;}.cls-152{fill:#8f896b;}.cls-153{fill:#8e896b;}.cls-154{fill:#8d886b;}.cls-155{fill:#8c876c;}.cls-156{fill:#8b866c;}.cls-157{fill:#8a856c;}.cls-158{fill:#89856c;}.cls-159{fill:#88846d;}.cls-160{fill:#87836d;}.cls-161{fill:#86826d;}.cls-162{fill:#85826d;}.cls-163{fill:#84816e;}.cls-164{fill:#83806e;}.cls-165{fill:#827f6e;}.cls-166{fill:#817f6e;}.cls-167{fill:#807e6f;}.cls-168{fill:#7f7d6f;}.cls-169{fill:#7e7c6f;}.cls-170{fill:#7d7c6f;}.cls-171{fill:#7c7b70;}.cls-172{fill:#7b7a70;}.cls-173{fill:#7a7970;}.cls-174{fill:#797870;}.cls-175{fill:#787770;}.cls-176{fill:#777670;}.cls-177{fill:#767570;}.cls-178{fill:#757470;}.cls-179{fill:#747470;}.cls-180{fill:#737370;}.cls-181{fill:#727270;}.cls-182{fill:#717170;}.cls-183{fill:#707070;}.cls-184{fill:#6f6f70;}.cls-185{fill:#6e6e70;}.cls-186{fill:#6d6d70;}.cls-187{fill:#6c6c70;}.cls-188{fill:#6b6b70;}.cls-189{fill:#6a6a70;}.cls-190{fill:#696970;}.cls-191{fill:#686870;}.cls-192{fill:#676770;}.cls-193{fill:#666770;}.cls-194{fill:#656670;}.cls-195{fill:#646570;}.cls-196{fill:#636470;}.cls-197{fill:#626370;}.cls-198{fill:#616270;}.cls-199{fill:#606170;}.cls-200{fill:#5f6070;}.cls-201{fill:#5e5f70;}.cls-202{fill:#5d5e70;}.cls-203{fill:#5c5d70;}.cls-204{fill:#5b5c70;}.cls-205{fill:#5a5b70;}.cls-206{fill:#595b70;}.cls-207{fill:#585a70;}.cls-208{fill:#575970;}.cls-209{fill:#565870;}.cls-210{fill:#555770;}.cls-211{fill:#545670;}.cls-212{fill:#535570;}.cls-213{fill:#515471;}.cls-214{fill:#505371;}.cls-215{fill:#4f5271;}</style><clipPath id="clip-path"><path class="cls-1" d="M46.3836,13.0241a1.86,1.86,0,0,0-1.569-1.8364V7.7261A.8219.8219,0,1,0,43.74,6.74H38.5348a1.22,1.22,0,1,0-1.3659,1.4054v7.6068a1.6438,1.6438,0,0,0,0,3.2684v5.4363a.9707.9707,0,0,0-.0827,1.8846c-.4292,3.9068-2.53,5.5759-5.647,5.8624a.9589.9589,0,0,0-1.87.0105,5.8619,5.8619,0,0,1-3.8359-1.6475,1.8648,1.8648,0,0,0-1.6-3.1788,12.7484,12.7484,0,0,1-.2723-2.7521V22.1154a.938.938,0,0,0,0-1.79v-6.675a1.0238,1.0238,0,0,0,0-2.0075V8.9055A1.9222,1.9222,0,1,0,21.6471,6.74H17.363a1.0232,1.0232,0,1,0-1.2047,1.2695v6.3787a1.5079,1.5079,0,0,0,0,2.996v6.6936q0,.4464.0148.8793a.9268.9268,0,0,0,.1315,1.8438c.5681,5.06,2.7726,8.5194,6.2509,10.4157a.9941.9941,0,0,0,1.632.74,17.3915,17.3915,0,0,0,6.0828.9936c.2223,0,.4422-.0044.6607-.0105a1.1758,1.1758,0,0,0,2.2712-.1871,14.1282,14.1282,0,0,0,6.2854-2.3619A1.9723,1.9723,0,0,0,42.26,33.5945,16.1985,16.1985,0,0,0,44.8152,24.17V22.9583a.8064.8064,0,0,0,0-1.5345V14.8605a1.8605,1.8605,0,0,0,1.5691-1.8364Zm-2.2371,8.4781L38.904,17.9177a1.6222,1.6222,0,0,0-.02-1.1182l4.1828-2.6182a1.86,1.86,0,0,0,1.1053.67v6.6355l-.0247.0148Zm-6.1273,3.1986a.97.97,0,0,0-.3835-.2223V19.0026a1.6364,1.6364,0,0,0,.8139-.3982l5.3147,3.5011a.812.812,0,0,0-.0044.084.7179.7179,0,0,0,.0044.0815ZM38.013,7.9484l4.8757,4.1822a1.8579,1.8579,0,0,0-.15,1.4258L38.4983,16.21a1.6385,1.6385,0,0,0-.8626-.4434V8.11a1.2139,1.2139,0,0,0,.3773-.168Zm5.3227,3.64L38.4576,7.4044a1.1488,1.1488,0,0,0,.04-.1112h5.2869a.8248.8248,0,0,0,.386.3971v3.5055A1.8535,1.8535,0,0,0,43.3357,11.5885ZM37.5042,26.686,39.89,33.1585a1.98,1.98,0,0,0-.9243,1.0078l-6.4126-1.5919c2.5471-.6669,4.4459-2.5978,4.9522-5.8884ZM32.1506,37.3852l-1.1041-4.17a.9608.9608,0,0,0,.2365-.2309l7.5364,1.8975c0,.0111-.0018.0216-.0018.0328a1.9621,1.9621,0,0,0,.3,1.0429,13.4059,13.4059,0,0,1-5.9742,2.1915,1.177,1.177,0,0,0-.9948-.7633Zm-2.81-4.6064-5.1486,3.6555a.986.986,0,0,0-.1068-.0784l.4724-5.2579a1.8608,1.8608,0,0,0,.76-.2229A6.449,6.449,0,0,0,29.34,32.7794Zm-6.5021-4.54-5.6006-2.4082a.921.921,0,0,0-.0087-.0938l5.855-3.7235a.9288.9288,0,0,0,.3088.1241v3.0171a11.0812,11.0812,0,0,0,.242,2.3816,1.8751,1.8751,0,0,0-.7971.7021ZM16.67,23.9537V17.3558a1.5029,1.5029,0,0,0,.6292-.3112l5.3758,3.9315a.9107.9107,0,0,0-.0049.4693l-5.8,3.6883a.9257.9257,0,0,0-.1773-.1056C16.6788,24.6761,16.67,24.32,16.67,23.9537Zm.2241-16.0683,5.755,4.5929a1.0358,1.0358,0,0,0-.0142.163c0,.0185.0019.0383.0031.0574l-5.1326,2.2329a1.507,1.507,0,0,0-.836-.5212V7.99a1.0188,1.0188,0,0,0,.2241-.0982Zm.465-.5971h4.2915a1.9217,1.9217,0,0,0,1.7432,1.63v2.7354a1.0191,1.0191,0,0,0-.3631.181L17.3439,7.34a.5111.5111,0,0,0,.0166-.0513ZM23.1,20.41l-5.38-3.9346a1.5017,1.5017,0,0,0,.0939-.8849l5.2-2.1612a1.02,1.02,0,0,0,.3792.1933v6.6657a.931.931,0,0,0-.2933.1149Zm-6.2879,6.2446a.9321.9321,0,0,0,.1883-.16l5.5821,2.4A1.8635,1.8635,0,0,0,23.86,31.0189L23.394,36.212a.9941.9941,0,0,0-.6885.4569c-3.3245-1.8154-5.3616-5.1263-5.8933-10.0137ZM24.5061,37.463a.9491.9491,0,0,0,.0272-.4094l5.419-3.8469a.9525.9525,0,0,0,.4076.1636l1.1022,4.1619a1.1777,1.1777,0,0,0-.5749.7953l-.6156.0105a17.4944,17.4944,0,0,1-5.7649-.8756Zm17.2983-4.2421a1.9629,1.9629,0,0,0-1.0121-.2816,1.9928,1.9928,0,0,0-.2291.0142l-2.5255-6.8553a.9679.9679,0,0,0,.2884-.69c0-.0247-.0019-.0481-.0037-.0722l5.8185-2.4613.0309.0185v1.1516A16.1326,16.1326,0,0,1,41.8056,33.22Z"/></clipPath></defs><title>logoil</title><g class="cls-2"><path class="cls-3" d="M38.0167,22.89h.0618V33.2641h-.0618Z"/><path id="B" class="cls-4" d="M38.14,22.89h.1235V33.2641H38.14Z"/><path class="cls-5" d="M38.2019,22.89h.1235V33.2641h-.1235Z"/><path class="cls-6" d="M38.3254,22.89h.1235V33.2641h-.1235Z"/><path class="cls-7" d="M38.4489,22.89h.1235V33.2641h-.1235Z"/><path class="cls-8" d="M38.5107,22.89h.1235V33.2641h-.1235Z"/><path class="cls-9" d="M38.6342,22.89h.1235V33.2641h-.1235Z"/><path class="cls-10" d="M38.6959,22.89h.1235V33.2641h-.1235Z"/><path class="cls-11" d="M38.8194,22.89h.1235V33.2641h-.1235Z"/><path class="cls-12" d="M38.9429,22.89h.1235V33.2641h-.1235Z"/><path class="cls-13" d="M39.0047,22.89h.1235V33.2641h-.1235Z"/><path class="cls-14" d="M39.1282,22.89h.1235V33.2641h-.1235Z"/><path class="cls-15" d="M39.19,22.89h.1235V33.2641H39.19Z"/><path class="cls-16" d="M39.3134,22.89h.1235V33.2641h-.1235Z"/><path class="cls-17" d="M39.4369,22.89H39.56V33.2641h-.1235Z"/><path class="cls-18" d="M39.4987,22.89h.1235V33.2641h-.1235Z"/><path class="cls-19" d="M39.6222,22.89h.1235V33.2641h-.1235Z"/><path class="cls-20" d="M39.7457,22.89h.1235V33.2641h-.1235Z"/><path class="cls-21" d="M39.8074,22.89h.1235V33.2641h-.1235Z"/><path class="cls-22" d="M39.9309,22.89h.1235V33.2641h-.1235Z"/><path class="cls-23" d="M39.9927,22.89h.1235V33.2641h-.1235Z"/><path class="cls-24" d="M40.1162,22.89H40.24V33.2641h-.1235Z"/><path class="cls-25" d="M40.24,22.89h.1235V33.2641H40.24Z"/><path class="cls-26" d="M40.3014,22.89h.1235V33.2641h-.1235Z"/><path class="cls-27" d="M40.4249,22.89h.1235V33.2641h-.1235Z"/><path class="cls-28" d="M40.4866,22.89H40.61V33.2641h-.1235Z"/><path class="cls-29" d="M40.61,22.89h.1235V33.2641H40.61Z"/><path class="cls-30" d="M40.7336,22.89h.1235V33.2641h-.1235Z"/><path class="cls-31" d="M40.7954,22.89h.1235V33.2641h-.1235Z"/><path class="cls-32" d="M40.9189,22.89h.1235V33.2641h-.1235Z"/><path class="cls-33" d="M40.9806,22.89h.1235V33.2641h-.1235Z"/><path class="cls-34" d="M41.1041,22.89h.1235V33.2641h-.1235Z"/><path class="cls-35" d="M41.2276,22.89h.1235V33.2641h-.1235Z"/><path class="cls-36" d="M41.2894,22.89h.1235V33.2641h-.1235Z"/><path class="cls-37" d="M41.4129,22.89h.1235V33.2641h-.1235Z"/><path class="cls-38" d="M41.4746,22.89h.1235V33.2641h-.1235Z"/><path class="cls-39" d="M41.5981,22.89h.1235V33.2641h-.1235Z"/><path class="cls-40" d="M41.7216,22.89h.1235V33.2641h-.1235Z"/><path class="cls-40" d="M41.7834,22.89H44.13V33.2641H41.7834Z"/><path class="cls-41" d="M24.4937,33.2024H25.667v5.1251H24.4937Z"/><path id="C" class="cls-41" d="M25.667,33.2024h.0617v5.1251H25.667Z"/><path class="cls-42" d="M25.7287,33.2024h.0618v5.1251h-.0618Z"/><path class="cls-43" d="M25.7905,33.2024h.0617v5.1251h-.0617Z"/><path class="cls-44" d="M25.8522,33.2024h.0618v5.1251h-.0618Z"/><path class="cls-45" d="M25.914,33.2024h.0617v5.1251H25.914Z"/><path class="cls-46" d="M25.9757,33.2024h.0618v5.1251h-.0618Z"/><path class="cls-47" d="M26.0375,33.2024h.0617v5.1251h-.0617Z"/><path class="cls-48" d="M26.0992,33.2024h.0618v5.1251h-.0618Z"/><path class="cls-49" d="M26.161,33.2024h.0617v5.1251H26.161Z"/><path class="cls-50" d="M26.2227,33.2024h.0618v5.1251h-.0618Z"/><path class="cls-51" d="M26.2845,33.2024h.0617v5.1251h-.0617Z"/><path class="cls-52" d="M26.3462,33.2024h.0618v5.1251h-.0618Z"/><path class="cls-53" d="M26.408,33.2024H26.47v5.1251H26.408Z"/><path class="cls-54" d="M26.47,33.2024h.0618v5.1251H26.47Z"/><path class="cls-55" d="M26.5314,33.2024h.0618v5.1251h-.0618Z"/><path class="cls-56" d="M26.5932,33.2024h.0617v5.1251h-.0617Z"/><path class="cls-57" d="M26.6549,33.2024h.0618v5.1251h-.0618Z"/><path class="cls-58" d="M26.7167,33.2024h.0617v5.1251h-.0617Z"/><path class="cls-59" d="M26.7784,33.2024H26.84v5.1251h-.0618Z"/><path class="cls-60" d="M26.84,33.2024h.0617v5.1251H26.84Z"/><path class="cls-61" d="M26.9019,33.2024h.0618v5.1251h-.0618Z"/><path class="cls-62" d="M26.9637,33.2024h.0617v5.1251h-.0617Z"/><path class="cls-63" d="M27.0254,33.2024h.0618v5.1251h-.0618Z"/><path class="cls-64" d="M27.0872,33.2024h.0617v5.1251h-.0617Z"/><path class="cls-65" d="M27.1489,33.2024h.0618v5.1251h-.0618Z"/><path class="cls-66" d="M27.2107,33.2024h.0617v5.1251h-.0617Z"/><path class="cls-67" d="M27.2724,33.2024h.0618v5.1251h-.0618Z"/><path class="cls-68" d="M27.3342,33.2024h.0617v5.1251h-.0617Z"/><path class="cls-69" d="M27.3959,33.2024h.0618v5.1251h-.0618Z"/><path class="cls-70" d="M27.4577,33.2024h.0617v5.1251h-.0617Z"/><path class="cls-71" d="M27.5194,33.2024h.0618v5.1251h-.0618Z"/><path class="cls-72" d="M27.5812,33.2024h.0617v5.1251h-.0617Z"/><path class="cls-73" d="M27.6429,33.2024h.0618v5.1251h-.0618Z"/><path class="cls-74" d="M27.7047,33.2024h.0617v5.1251h-.0617Z"/><path class="cls-75" d="M27.7664,33.2024h.0618v5.1251h-.0618Z"/><path class="cls-76" d="M27.8282,33.2024H27.89v5.1251h-.0617Z"/><path class="cls-77" d="M27.8282,33.2024H27.89v5.1251h-.0617Z"/><path class="cls-78" d="M27.89,33.2024h.0618v5.1251H27.89Z"/><path class="cls-79" d="M27.9517,33.2024h.0617v5.1251h-.0617Z"/><path class="cls-80" d="M28.0134,33.2024h.0618v5.1251h-.0618Z"/><path class="cls-81" d="M28.0752,33.2024h.0617v5.1251h-.0617Z"/><path class="cls-82" d="M28.1369,33.2024h.0618v5.1251h-.0618Z"/><path class="cls-83" d="M28.1987,33.2024H28.26v5.1251h-.0617Z"/><path class="cls-84" d="M28.26,33.2024h.0618v5.1251H28.26Z"/><path class="cls-85" d="M28.3222,33.2024h.0617v5.1251h-.0617Z"/><path class="cls-86" d="M28.3839,33.2024h.0618v5.1251h-.0618Z"/><path class="cls-87" d="M28.4457,33.2024h.0617v5.1251h-.0617Z"/><path class="cls-88" d="M28.5074,33.2024h.0618v5.1251h-.0618Z"/><path class="cls-89" d="M28.5692,33.2024h.0617v5.1251h-.0617Z"/><path class="cls-90" d="M28.6309,33.2024h.0618v5.1251h-.0618Z"/><path class="cls-91" d="M28.6927,33.2024h.0617v5.1251h-.0617Z"/><path class="cls-92" d="M28.7544,33.2024h.0618v5.1251h-.0618Z"/><path class="cls-93" d="M28.8162,33.2024h.0617v5.1251h-.0617Z"/><path class="cls-94" d="M28.8779,33.2024H28.94v5.1251h-.0617Z"/><path class="cls-95" d="M28.94,33.2024h.0618v5.1251H28.94Z"/><path class="cls-96" d="M29.0014,33.2024h.0617v5.1251h-.0617Z"/><path class="cls-97" d="M29.0631,33.2024h.0618v5.1251h-.0618Z"/><path class="cls-98" d="M29.1249,33.2024h.0617v5.1251h-.0617Z"/><path class="cls-99" d="M29.1866,33.2024h.0618v5.1251h-.0618Z"/><path class="cls-100" d="M29.2484,33.2024H29.31v5.1251h-.0617Z"/><path class="cls-101" d="M29.31,33.2024h.0618v5.1251H29.31Z"/><path class="cls-102" d="M29.3719,33.2024h.0617v5.1251h-.0617Z"/><path class="cls-103" d="M29.4336,33.2024h.0618v5.1251h-.0618Z"/><path class="cls-104" d="M29.4954,33.2024h.0617v5.1251h-.0617Z"/><path class="cls-105" d="M29.5571,33.2024h.0618v5.1251h-.0618Z"/><path class="cls-106" d="M29.6189,33.2024h.0617v5.1251h-.0617Z"/><path class="cls-107" d="M29.6806,33.2024h.0618v5.1251h-.0618Z"/><path class="cls-108" d="M29.7424,33.2024h.0617v5.1251h-.0617Z"/><path class="cls-109" d="M29.8041,33.2024h.0618v5.1251h-.0618Z"/><path class="cls-110" d="M29.8659,33.2024h.0617v5.1251h-.0617Z"/><path class="cls-111" d="M29.9276,33.2024h.0618v5.1251h-.0618Z"/><path class="cls-112" d="M29.9894,33.2024h.0617v5.1251h-.0617Z"/><path class="cls-113" d="M30.0511,33.2024h.0618v5.1251h-.0618Z"/><path class="cls-114" d="M30.1129,33.2024h.0617v5.1251h-.0617Z"/><path class="cls-115" d="M30.1746,33.2024h.0618v5.1251h-.0618Z"/><path class="cls-116" d="M30.2364,33.2024h.0617v5.1251h-.0617Z"/><path class="cls-117" d="M30.2981,33.2024H30.36v5.1251h-.0618Z"/><path class="cls-118" d="M30.36,33.2024h.0617v5.1251H30.36Z"/><path class="cls-119" d="M30.4216,33.2024h.0618v5.1251h-.0618Z"/><path class="cls-120" d="M30.4834,33.2024h.0617v5.1251h-.0617Z"/><path class="cls-121" d="M30.5451,33.2024h.0618v5.1251h-.0618Z"/><path class="cls-122" d="M30.6069,33.2024h.0617v5.1251h-.0617Z"/><path class="cls-123" d="M30.6069,33.2024h.0617v5.1251h-.0617Z"/><path class="cls-124" d="M30.6686,33.2024H30.73v5.1251h-.0618Z"/><path class="cls-125" d="M30.73,33.2024h.0617v5.1251H30.73Z"/><path class="cls-126" d="M30.7921,33.2024h.0618v5.1251h-.0618Z"/><path class="cls-127" d="M30.8539,33.2024h.0617v5.1251h-.0617Z"/><path class="cls-128" d="M30.9156,33.2024h.0618v5.1251h-.0618Z"/><path class="cls-129" d="M30.9774,33.2024h.0617v5.1251h-.0617Z"/><path class="cls-130" d="M31.0391,33.2024h.0617v5.1251h-.0617Z"/><path class="cls-131" d="M31.1009,33.2024h.0617v5.1251h-.0617Z"/><path class="cls-132" d="M31.1626,33.2024h.0617v5.1251h-.0617Z"/><path class="cls-133" d="M31.2243,33.2024h.0618v5.1251h-.0618Z"/><path class="cls-134" d="M31.2861,33.2024h.0617v5.1251h-.0617Z"/><path class="cls-135" d="M31.3478,33.2024H31.41v5.1251h-.0618Z"/><path class="cls-136" d="M31.41,33.2024h.0617v5.1251H31.41Z"/><path class="cls-41" d="M16.8369,26.4718h7.0394V36.66H16.8369Zm.8645-13.029h5.6809V20.42H17.7014Zm-.37-6.1749h6.0514v4.5694H17.3309Z"/><path class="cls-41" d="M16.6517,7.8854h5.99v7.0394h-5.99Zm0,9.1388h5.99v8.0891h-5.99Z"/><path class="cls-41" d="M17.2074,22.0259h6.4219v6.2366H17.2074Zm6.8541,8.83H25.667v5.5574H24.0615Z"/><path id="D" class="cls-41" d="M25.667,30.8559h.0617v5.5574H25.667Z"/><path class="cls-42" d="M25.7287,30.8559h.0618v5.5574h-.0618Z"/><path class="cls-43" d="M25.7905,30.8559h.0617v5.5574h-.0617Z"/><path class="cls-44" d="M25.8522,30.8559h.0618v5.5574h-.0618Z"/><path class="cls-45" d="M25.914,30.8559h.0617v5.5574H25.914Z"/><path class="cls-46" d="M25.9757,30.8559h.0618v5.5574h-.0618Z"/><path class="cls-47" d="M26.0375,30.8559h.0617v5.5574h-.0617Z"/><path class="cls-48" d="M26.0992,30.8559h.0618v5.5574h-.0618Z"/><path class="cls-49" d="M26.161,30.8559h.0617v5.5574H26.161Z"/><path class="cls-50" d="M26.2227,30.8559h.0618v5.5574h-.0618Z"/><path class="cls-51" d="M26.2845,30.8559h.0617v5.5574h-.0617Z"/><path class="cls-52" d="M26.3462,30.8559h.0618v5.5574h-.0618Z"/><path class="cls-53" d="M26.408,30.8559H26.47v5.5574H26.408Z"/><path class="cls-54" d="M26.47,30.8559h.0618v5.5574H26.47Z"/><path class="cls-55" d="M26.5314,30.8559h.0618v5.5574h-.0618Z"/><path class="cls-56" d="M26.5932,30.8559h.0617v5.5574h-.0617Z"/><path class="cls-57" d="M26.6549,30.8559h.0618v5.5574h-.0618Z"/><path class="cls-58" d="M26.7167,30.8559h.0617v5.5574h-.0617Z"/><path class="cls-59" d="M26.7784,30.8559H26.84v5.5574h-.0618Z"/><path class="cls-60" d="M26.84,30.8559h.0617v5.5574H26.84Z"/><path class="cls-61" d="M26.9019,30.8559h.0618v5.5574h-.0618Z"/><path class="cls-62" d="M26.9637,30.8559h.0617v5.5574h-.0617Z"/><path class="cls-63" d="M27.0254,30.8559h.0618v5.5574h-.0618Z"/><path class="cls-64" d="M27.0872,30.8559h.0617v5.5574h-.0617Z"/><path class="cls-65" d="M27.1489,30.8559h.0618v5.5574h-.0618Z"/><path class="cls-66" d="M27.2107,30.8559h.0617v5.5574h-.0617Z"/><path class="cls-67" d="M27.2724,30.8559h.0618v5.5574h-.0618Z"/><path class="cls-68" d="M27.3342,30.8559h.0617v5.5574h-.0617Z"/><path class="cls-69" d="M27.3959,30.8559h.0618v5.5574h-.0618Z"/><path class="cls-70" d="M27.4577,30.8559h.0617v5.5574h-.0617Z"/><path class="cls-71" d="M27.5194,30.8559h.0618v5.5574h-.0618Z"/><path class="cls-72" d="M27.5812,30.8559h.0617v5.5574h-.0617Z"/><path class="cls-73" d="M27.6429,30.8559h.0618v5.5574h-.0618Z"/><path class="cls-74" d="M27.7047,30.8559h.0617v5.5574h-.0617Z"/><path class="cls-75" d="M27.7664,30.8559h.0618v5.5574h-.0618Z"/><path class="cls-76" d="M27.8282,30.8559H27.89v5.5574h-.0617Z"/><path class="cls-77" d="M27.8282,30.8559H27.89v5.5574h-.0617Z"/><path class="cls-78" d="M27.89,30.8559h.0618v5.5574H27.89Z"/><path class="cls-79" d="M27.9517,30.8559h.0617v5.5574h-.0617Z"/><path class="cls-80" d="M28.0134,30.8559h.0618v5.5574h-.0618Z"/><path class="cls-81" d="M28.0752,30.8559h.0617v5.5574h-.0617Z"/><path class="cls-82" d="M28.1369,30.8559h.0618v5.5574h-.0618Z"/><path class="cls-83" d="M28.1987,30.8559H28.26v5.5574h-.0617Z"/><path class="cls-84" d="M28.26,30.8559h.0618v5.5574H28.26Z"/><path class="cls-85" d="M28.3222,30.8559h.0617v5.5574h-.0617Z"/><path class="cls-86" d="M28.3839,30.8559h.0618v5.5574h-.0618Z"/><path class="cls-87" d="M28.4457,30.8559h.0617v5.5574h-.0617Z"/><path class="cls-88" d="M28.5074,30.8559h.0618v5.5574h-.0618Z"/><path class="cls-89" d="M28.5692,30.8559h.0617v5.5574h-.0617Z"/><path class="cls-90" d="M28.6309,30.8559h.0618v5.5574h-.0618Z"/><path class="cls-91" d="M28.6927,30.8559h.0617v5.5574h-.0617Z"/><path class="cls-92" d="M28.7544,30.8559h.0618v5.5574h-.0618Z"/><path class="cls-93" d="M28.8162,30.8559h.0617v5.5574h-.0617Z"/><path class="cls-94" d="M28.8779,30.8559H28.94v5.5574h-.0617Z"/><path class="cls-95" d="M28.94,30.8559h.0618v5.5574H28.94Z"/><path class="cls-96" d="M29.0014,30.8559h.0617v5.5574h-.0617Z"/><path class="cls-97" d="M29.0631,30.8559h.0618v5.5574h-.0618Z"/><path class="cls-98" d="M29.1249,30.8559h.0617v5.5574h-.0617Z"/><path class="cls-99" d="M29.1866,30.8559h.0618v5.5574h-.0618Z"/><path class="cls-100" d="M29.2484,30.8559H29.31v5.5574h-.0617Z"/><path class="cls-101" d="M29.31,30.8559h.0618v5.5574H29.31Z"/><path id="E" class="cls-130" d="M31.0391,32.9554h.0617v5.1869h-.0617Z"/><path class="cls-131" d="M31.1009,32.9554h.0617v5.1869h-.0617Z"/><path class="cls-132" d="M31.1626,32.9554h.0617v5.1869h-.0617Z"/><path class="cls-133" d="M31.2243,32.9554h.0618v5.1869h-.0618Z"/><path class="cls-134" d="M31.2861,32.9554h.0617v5.1869h-.0617Z"/><path class="cls-135" d="M31.3478,32.9554H31.41v5.1869h-.0618Z"/><path class="cls-136" d="M31.41,32.9554h.0617v5.1869H31.41Z"/><path class="cls-137" d="M31.4713,32.9554h.0618v5.1869h-.0618Z"/><path class="cls-138" d="M31.5331,32.9554h.0617v5.1869h-.0617Z"/><path class="cls-139" d="M31.5948,32.9554h.0618v5.1869h-.0618Z"/><path class="cls-140" d="M31.6566,32.9554h.0617v5.1869h-.0617Z"/><path class="cls-141" d="M31.7183,32.9554H31.78v5.1869h-.0618Z"/><path class="cls-142" d="M31.78,32.9554h.0617v5.1869H31.78Z"/><path class="cls-143" d="M31.8418,32.9554h.0618v5.1869h-.0618Z"/><path class="cls-144" d="M31.9036,32.9554h.0617v5.1869h-.0617Z"/><path class="cls-145" d="M31.9653,32.9554h.0618v5.1869h-.0618Z"/><path class="cls-146" d="M32.0271,32.9554h.0617v5.1869h-.0617Z"/><path class="cls-147" d="M32.0888,32.9554h.0618v5.1869h-.0618Z"/><path class="cls-148" d="M32.1506,32.9554h.0617v5.1869h-.0617Z"/><path class="cls-149" d="M32.2123,32.9554h.0618v5.1869h-.0618Z"/><path class="cls-150" d="M32.2741,32.9554h.0617v5.1869h-.0617Z"/><path class="cls-151" d="M32.3358,32.9554h.0618v5.1869h-.0618Z"/><path class="cls-152" d="M32.3976,32.9554h.0617v5.1869h-.0617Z"/><path class="cls-153" d="M32.4593,32.9554h.0618v5.1869h-.0618Z"/><path class="cls-154" d="M32.5211,32.9554h.0617v5.1869h-.0617Z"/><path class="cls-155" d="M32.5828,32.9554h.0618v5.1869h-.0618Z"/><path class="cls-156" d="M32.6446,32.9554h.0617v5.1869h-.0617Z"/><path class="cls-157" d="M32.7063,32.9554h.0618v5.1869h-.0618Z"/><path class="cls-158" d="M32.7681,32.9554H32.83v5.1869h-.0617Z"/><path class="cls-159" d="M32.83,32.9554h.0618v5.1869H32.83Z"/><path class="cls-160" d="M32.8916,32.9554h.0617v5.1869h-.0617Z"/><path class="cls-161" d="M32.9533,32.9554h.0618v5.1869h-.0618Z"/><path class="cls-162" d="M33.0151,32.9554h.0617v5.1869h-.0617Z"/><path class="cls-163" d="M33.0768,32.9554h.0618v5.1869h-.0618Z"/><path class="cls-164" d="M33.1386,32.9554H33.2v5.1869h-.0617Z"/><path class="cls-165" d="M33.2,32.9554h.0618v5.1869H33.2Z"/><path class="cls-166" d="M33.2621,32.9554h.0617v5.1869h-.0617Z"/><path class="cls-167" d="M33.3238,32.9554h.0618v5.1869h-.0618Z"/><path class="cls-168" d="M33.3856,32.9554h.0617v5.1869h-.0617Z"/><path class="cls-169" d="M33.4473,32.9554h.0617v5.1869h-.0617Z"/><path class="cls-170" d="M33.4473,32.9554h.0617v5.1869h-.0617Z"/><path class="cls-171" d="M33.509,32.9554h.0618v5.1869H33.509Z"/><path class="cls-172" d="M33.5708,32.9554h.0617v5.1869h-.0617Z"/><path id="F" class="cls-172" d="M33.6325,32.9554h.1235v5.1869h-.1235Z"/><path class="cls-173" d="M33.756,32.9554H33.88v5.1869H33.756Z"/><path class="cls-174" d="M33.88,32.9554h.1235v5.1869H33.88Z"/><path class="cls-175" d="M33.9413,32.9554h.1235v5.1869h-.1235Z"/><path class="cls-176" d="M34.0648,32.9554h.1235v5.1869h-.1235Z"/><path class="cls-177" d="M34.1265,32.9554H34.25v5.1869h-.1235Z"/><path class="cls-178" d="M34.25,32.9554h.1235v5.1869H34.25Z"/><path class="cls-179" d="M34.3735,32.9554h.1235v5.1869h-.1235Z"/><path class="cls-180" d="M34.4353,32.9554h.1235v5.1869h-.1235Z"/><path class="cls-181" d="M34.5588,32.9554h.1235v5.1869h-.1235Z"/><path class="cls-182" d="M34.6205,32.9554h.1235v5.1869h-.1235Z"/><path class="cls-183" d="M34.744,32.9554h.1235v5.1869H34.744Z"/><path class="cls-184" d="M34.8675,32.9554h.1235v5.1869h-.1235Z"/><path class="cls-185" d="M34.9293,32.9554h.1235v5.1869h-.1235Z"/><path class="cls-186" d="M35.0528,32.9554h.1235v5.1869h-.1235Z"/><path class="cls-187" d="M35.1763,32.9554H35.3v5.1869h-.1235Z"/><path class="cls-188" d="M35.238,32.9554h.1235v5.1869H35.238Z"/><path class="cls-189" d="M35.3615,32.9554h.1235v5.1869h-.1235Z"/><path class="cls-190" d="M35.4233,32.9554h.1235v5.1869h-.1235Z"/><path class="cls-191" d="M35.5468,32.9554H35.67v5.1869h-.1235Z"/><path class="cls-192" d="M35.67,32.9554h.1234v5.1869H35.67Z"/><path class="cls-193" d="M35.732,32.9554h.1235v5.1869H35.732Z"/><path class="cls-194" d="M35.8555,32.9554h.1235v5.1869h-.1235Z"/><path class="cls-195" d="M35.9172,32.9554h.1235v5.1869h-.1235Z"/><path class="cls-196" d="M36.0407,32.9554h.1235v5.1869h-.1235Z"/><path class="cls-197" d="M36.1642,32.9554h.1235v5.1869h-.1235Z"/><path class="cls-198" d="M36.226,32.9554H36.35v5.1869H36.226Z"/><path class="cls-199" d="M36.35,32.9554h.1235v5.1869H36.35Z"/><path class="cls-200" d="M36.4112,32.9554h.1235v5.1869h-.1235Z"/><path class="cls-201" d="M36.5347,32.9554h.1235v5.1869h-.1235Z"/><path class="cls-202" d="M36.6582,32.9554h.1235v5.1869h-.1235Z"/><path class="cls-203" d="M36.72,32.9554h.1235v5.1869H36.72Z"/><path class="cls-204" d="M36.8435,32.9554h.1235v5.1869h-.1235Z"/><path class="cls-205" d="M36.9052,32.9554h.1235v5.1869h-.1235Z"/><path class="cls-206" d="M37.0287,32.9554h.1235v5.1869h-.1235Z"/><path class="cls-207" d="M37.1522,32.9554h.1235v5.1869h-.1235Z"/><path class="cls-208" d="M37.214,32.9554h.1235v5.1869H37.214Z"/><path class="cls-209" d="M37.3375,32.9554h.1235v5.1869h-.1235Z"/><path class="cls-210" d="M37.461,32.9554h.1235v5.1869H37.461Z"/><path class="cls-211" d="M37.5227,32.9554h.1235v5.1869h-.1235Z"/><path class="cls-212" d="M37.6462,32.9554H37.77v5.1869h-.1235Z"/><path class="cls-213" d="M37.708,32.9554h.1235v5.1869H37.708Z"/><path class="cls-214" d="M37.8315,32.9554h.1235v5.1869h-.1235Z"/><path class="cls-215" d="M37.955,32.9554h.1235v5.1869H37.955Z"/><path class="cls-3" d="M38.0167,32.9554H38.14v5.1869h-.1235Z"/><path class="cls-4" d="M38.14,32.9554h.1235v5.1869H38.14Z"/><path class="cls-5" d="M38.2019,32.9554h.1235v5.1869h-.1235Z"/><path class="cls-6" d="M38.3254,32.9554h.1235v5.1869h-.1235Z"/><path class="cls-7" d="M38.4489,32.9554h.1235v5.1869h-.1235Z"/><path class="cls-8" d="M38.5107,32.9554h.1235v5.1869h-.1235Z"/><path class="cls-9" d="M38.6342,32.9554h.1235v5.1869h-.1235Z"/><path class="cls-10" d="M38.6959,32.9554h.1235v5.1869h-.1235Z"/><path class="cls-11" d="M38.8194,32.9554h.1235v5.1869h-.1235Z"/><path class="cls-12" d="M38.9429,32.9554h.1235v5.1869h-.1235Z"/><path class="cls-13" d="M39.0047,32.9554h.1235v5.1869h-.1235Z"/><path id="G" class="cls-155" d="M32.5828,26.657h.0618v7.4716h-.0618Z"/><path class="cls-156" d="M32.6446,26.657h.0617v7.4716h-.0617Z"/><path class="cls-157" d="M32.7063,26.657h.0618v7.4716h-.0618Z"/><path class="cls-158" d="M32.7681,26.657H32.83v7.4716h-.0617Z"/><path class="cls-159" d="M32.83,26.657h.0618v7.4716H32.83Z"/><path class="cls-160" d="M32.8916,26.657h.0617v7.4716h-.0617Z"/><path class="cls-161" d="M32.9533,26.657h.0618v7.4716h-.0618Z"/><path class="cls-162" d="M33.0151,26.657h.0617v7.4716h-.0617Z"/><path class="cls-163" d="M33.0768,26.657h.0618v7.4716h-.0618Z"/><path class="cls-164" d="M33.1386,26.657H33.2v7.4716h-.0617Z"/><path class="cls-165" d="M33.2,26.657h.0618v7.4716H33.2Z"/><path class="cls-166" d="M33.2621,26.657h.0617v7.4716h-.0617Z"/><path class="cls-167" d="M33.3238,26.657h.0618v7.4716h-.0618Z"/><path class="cls-168" d="M33.3856,26.657h.0617v7.4716h-.0617Z"/><path class="cls-169" d="M33.4473,26.657h.0617v7.4716h-.0617Z"/><path class="cls-170" d="M33.4473,26.657h.0617v7.4716h-.0617Z"/><path class="cls-171" d="M33.509,26.657h.0618v7.4716H33.509Z"/><path class="cls-172" d="M33.5708,26.657h.0617v7.4716h-.0617Z"/><path id="H" class="cls-172" d="M33.6325,26.657h.1235v7.4716h-.1235Z"/><path class="cls-173" d="M33.756,26.657H33.88v7.4716H33.756Z"/><path class="cls-174" d="M33.88,26.657h.1235v7.4716H33.88Z"/><path class="cls-175" d="M33.9413,26.657h.1235v7.4716h-.1235Z"/><path class="cls-176" d="M34.0648,26.657h.1235v7.4716h-.1235Z"/><path class="cls-177" d="M34.1265,26.657H34.25v7.4716h-.1235Z"/><path class="cls-178" d="M34.25,26.657h.1235v7.4716H34.25Z"/><path class="cls-179" d="M34.3735,26.657h.1235v7.4716h-.1235Z"/><path class="cls-180" d="M34.4353,26.657h.1235v7.4716h-.1235Z"/><path class="cls-181" d="M34.5588,26.657h.1235v7.4716h-.1235Z"/><path class="cls-182" d="M34.6205,26.657h.1235v7.4716h-.1235Z"/><path class="cls-183" d="M34.744,26.657h.1235v7.4716H34.744Z"/><path class="cls-184" d="M34.8675,26.657h.1235v7.4716h-.1235Z"/><path class="cls-185" d="M34.9293,26.657h.1235v7.4716h-.1235Z"/><path class="cls-186" d="M35.0528,26.657h.1235v7.4716h-.1235Z"/><path class="cls-187" d="M35.1763,26.657H35.3v7.4716h-.1235Z"/><path class="cls-188" d="M35.238,26.657h.1235v7.4716H35.238Z"/><path class="cls-189" d="M35.3615,26.657h.1235v7.4716h-.1235Z"/><path class="cls-190" d="M35.4233,26.657h.1235v7.4716h-.1235Z"/><path class="cls-191" d="M35.5468,26.657H35.67v7.4716h-.1235Z"/><path class="cls-192" d="M35.67,26.657h.1234v7.4716H35.67Z"/><path class="cls-193" d="M35.732,26.657h.1235v7.4716H35.732Z"/><path class="cls-194" d="M35.8555,26.657h.1235v7.4716h-.1235Z"/><path class="cls-195" d="M35.9172,26.657h.1235v7.4716h-.1235Z"/><path class="cls-196" d="M36.0407,26.657h.1235v7.4716h-.1235Z"/><path class="cls-197" d="M36.1642,26.657h.1235v7.4716h-.1235Z"/><path class="cls-198" d="M36.226,26.657H36.35v7.4716H36.226Z"/><path class="cls-199" d="M36.35,26.657h.1235v7.4716H36.35Z"/><path class="cls-200" d="M36.4112,26.657h.1235v7.4716h-.1235Z"/><path class="cls-201" d="M36.5347,26.657h.1235v7.4716h-.1235Z"/><path class="cls-202" d="M36.6582,26.657h.1235v7.4716h-.1235Z"/><path class="cls-203" d="M36.72,26.657h.1235v7.4716H36.72Z"/><path class="cls-204" d="M36.8435,26.657h.1235v7.4716h-.1235Z"/><path class="cls-205" d="M36.9052,26.657h.1235v7.4716h-.1235Z"/><path class="cls-206" d="M37.0287,26.657h.1235v7.4716h-.1235Z"/><path class="cls-207" d="M37.1522,26.657h.1235v7.4716h-.1235Z"/><path class="cls-208" d="M37.214,26.657h.1235v7.4716H37.214Z"/><path class="cls-209" d="M37.3375,26.657h.1235v7.4716h-.1235Z"/><path class="cls-210" d="M37.461,26.657h.1235v7.4716H37.461Z"/><path class="cls-211" d="M37.5227,26.657h.1235v7.4716h-.1235Z"/><path class="cls-212" d="M37.6462,26.657H37.77v7.4716h-.1235Z"/><path class="cls-213" d="M37.708,26.657h.1235v7.4716H37.708Z"/><path class="cls-214" d="M37.8315,26.657h.1235v7.4716h-.1235Z"/><path class="cls-215" d="M37.955,26.657h.1235v7.4716H37.955Z"/><path class="cls-3" d="M38.0167,26.657H38.14v7.4716h-.1235Z"/><path class="cls-4" d="M38.14,26.657h.1235v7.4716H38.14Z"/><path class="cls-5" d="M38.2019,26.657h.1235v7.4716h-.1235Z"/><path class="cls-6" d="M38.3254,26.657h.1235v7.4716h-.1235Z"/><path class="cls-7" d="M38.4489,26.657h.1235v7.4716h-.1235Z"/><path class="cls-8" d="M38.5107,26.657h.1235v7.4716h-.1235Z"/><path class="cls-9" d="M38.6342,26.657h.1235v7.4716h-.1235Z"/><path class="cls-10" d="M38.6959,26.657h.1235v7.4716h-.1235Z"/><path class="cls-11" d="M38.8194,26.657h.1235v7.4716h-.1235Z"/><path class="cls-12" d="M38.9429,26.657h.1235v7.4716h-.1235Z"/><path class="cls-13" d="M39.0047,26.657h.1235v7.4716h-.1235Z"/><path class="cls-14" d="M39.1282,26.657h.1235v7.4716h-.1235Z"/><path class="cls-15" d="M39.19,26.657h.1235v7.4716H39.19Z"/><path class="cls-16" d="M39.3134,26.657h.1235v7.4716h-.1235Z"/><path class="cls-17" d="M39.4369,26.657H39.56v7.4716h-.1235Z"/><path class="cls-18" d="M39.4987,26.657h.1235v7.4716h-.1235Z"/><path class="cls-19" d="M39.6222,26.657h.1235v7.4716h-.1235Z"/><path class="cls-20" d="M39.7457,26.657h.1235v7.4716h-.1235Z"/><path class="cls-21" d="M39.8074,26.657h.0618v7.4716h-.0618Z"/><path class="cls-7" d="M38.4489,7.2679h.0618V11.59h-.0618Z"/><path class="cls-8" d="M38.5107,7.2679h.1235V11.59h-.1235Z"/><path class="cls-9" d="M38.6342,7.2679h.1235V11.59h-.1235Z"/><path class="cls-10" d="M38.6959,7.2679h.1235V11.59h-.1235Z"/><path class="cls-11" d="M38.8194,7.2679h.1235V11.59h-.1235Z"/><path class="cls-12" d="M38.9429,7.2679h.1235V11.59h-.1235Z"/><path class="cls-13" d="M39.0047,7.2679h.1235V11.59h-.1235Z"/><path class="cls-14" d="M39.1282,7.2679h.1235V11.59h-.1235Z"/><path class="cls-15" d="M39.19,7.2679h.1235V11.59H39.19Z"/><path class="cls-16" d="M39.3134,7.2679h.1235V11.59h-.1235Z"/><path class="cls-17" d="M39.4369,7.2679H39.56V11.59h-.1235Z"/><path class="cls-18" d="M39.4987,7.2679h.1235V11.59h-.1235Z"/><path class="cls-19" d="M39.6222,7.2679h.1235V11.59h-.1235Z"/><path class="cls-20" d="M39.7457,7.2679h.1235V11.59h-.1235Z"/><path class="cls-21" d="M39.8074,7.2679h.1235V11.59h-.1235Z"/><path class="cls-22" d="M39.9309,7.2679h.1235V11.59h-.1235Z"/><path class="cls-23" d="M39.9927,7.2679h.1235V11.59h-.1235Z"/><path class="cls-24" d="M40.1162,7.2679H40.24V11.59h-.1235Z"/><path class="cls-25" d="M40.24,7.2679h.1235V11.59H40.24Z"/><path class="cls-26" d="M40.3014,7.2679h.1235V11.59h-.1235Z"/><path class="cls-27" d="M40.4249,7.2679h.1235V11.59h-.1235Z"/><path class="cls-28" d="M40.4866,7.2679H40.61V11.59h-.1235Z"/><path class="cls-29" d="M40.61,7.2679h.1235V11.59H40.61Z"/><path class="cls-30" d="M40.7336,7.2679h.1235V11.59h-.1235Z"/><path class="cls-31" d="M40.7954,7.2679h.1235V11.59h-.1235Z"/><path class="cls-32" d="M40.9189,7.2679h.1235V11.59h-.1235Z"/><path class="cls-33" d="M40.9806,7.2679h.1235V11.59h-.1235Z"/><path class="cls-34" d="M41.1041,7.2679h.1235V11.59h-.1235Z"/><path class="cls-35" d="M41.2276,7.2679h.1235V11.59h-.1235Z"/><path class="cls-36" d="M41.2894,7.2679h.1235V11.59h-.1235Z"/><path class="cls-37" d="M41.4129,7.2679h.1235V11.59h-.1235Z"/><path class="cls-38" d="M41.4746,7.2679h.1235V11.59h-.1235Z"/><path class="cls-39" d="M41.5981,7.2679h.1235V11.59h-.1235Z"/><path class="cls-40" d="M41.7216,7.2679h.1235V11.59h-.1235Z"/><path class="cls-40" d="M41.7834,7.2679H44.13V11.59H41.7834Z"/><path id="I" class="cls-212" d="M37.6462,7.9472H37.77v8.2743h-.1235Z"/><path class="cls-213" d="M37.708,7.9472h.1235v8.2743H37.708Z"/><path class="cls-214" d="M37.8315,7.9472h.1235v8.2743h-.1235Z"/><path class="cls-215" d="M37.955,7.9472h.1235v8.2743H37.955Z"/><path class="cls-3" d="M38.0167,7.9472H38.14v8.2743h-.1235Z"/><path class="cls-4" d="M38.14,7.9472h.1235v8.2743H38.14Z"/><path class="cls-5" d="M38.2019,7.9472h.1235v8.2743h-.1235Z"/><path class="cls-6" d="M38.3254,7.9472h.1235v8.2743h-.1235Z"/><path class="cls-7" d="M38.4489,7.9472h.1235v8.2743h-.1235Z"/><path class="cls-8" d="M38.5107,7.9472h.1235v8.2743h-.1235Z"/><path class="cls-9" d="M38.6342,7.9472h.1235v8.2743h-.1235Z"/><path class="cls-10" d="M38.6959,7.9472h.1235v8.2743h-.1235Z"/><path class="cls-11" d="M38.8194,7.9472h.1235v8.2743h-.1235Z"/><path class="cls-12" d="M38.9429,7.9472h.1235v8.2743h-.1235Z"/><path class="cls-13" d="M39.0047,7.9472h.1235v8.2743h-.1235Z"/><path class="cls-14" d="M39.1282,7.9472h.1235v8.2743h-.1235Z"/><path class="cls-15" d="M39.19,7.9472h.1235v8.2743H39.19Z"/><path class="cls-16" d="M39.3134,7.9472h.1235v8.2743h-.1235Z"/><path class="cls-17" d="M39.4369,7.9472H39.56v8.2743h-.1235Z"/><path class="cls-18" d="M39.4987,7.9472h.1235v8.2743h-.1235Z"/><path class="cls-19" d="M39.6222,7.9472h.1235v8.2743h-.1235Z"/><path class="cls-20" d="M39.7457,7.9472h.1235v8.2743h-.1235Z"/><path class="cls-21" d="M39.8074,7.9472h.1235v8.2743h-.1235Z"/><path class="cls-22" d="M39.9309,7.9472h.1235v8.2743h-.1235Z"/><path class="cls-23" d="M39.9927,7.9472h.1235v8.2743h-.1235Z"/><path class="cls-24" d="M40.1162,7.9472H40.24v8.2743h-.1235Z"/><path class="cls-25" d="M40.24,7.9472h.1235v8.2743H40.24Z"/><path class="cls-26" d="M40.3014,7.9472h.1235v8.2743h-.1235Z"/><path class="cls-27" d="M40.4249,7.9472h.1235v8.2743h-.1235Z"/><path class="cls-28" d="M40.4866,7.9472H40.61v8.2743h-.1235Z"/><path class="cls-29" d="M40.61,7.9472h.1235v8.2743H40.61Z"/><path class="cls-30" d="M40.7336,7.9472h.1235v8.2743h-.1235Z"/><path class="cls-31" d="M40.7954,7.9472h.1235v8.2743h-.1235Z"/><path class="cls-32" d="M40.9189,7.9472h.1235v8.2743h-.1235Z"/><path class="cls-33" d="M40.9806,7.9472h.1235v8.2743h-.1235Z"/><path class="cls-34" d="M41.1041,7.9472h.1235v8.2743h-.1235Z"/><path class="cls-35" d="M41.2276,7.9472h.1235v8.2743h-.1235Z"/><path class="cls-36" d="M41.2894,7.9472h.1235v8.2743h-.1235Z"/><path class="cls-37" d="M41.4129,7.9472h.1235v8.2743h-.1235Z"/><path class="cls-38" d="M41.4746,7.9472h.1235v8.2743h-.1235Z"/><path class="cls-39" d="M41.5981,7.9472h.1235v8.2743h-.1235Z"/><path class="cls-40" d="M41.7216,7.9472h.1235v8.2743h-.1235Z"/><path class="cls-40" d="M41.7834,7.9472h1.1114v8.2743H41.7834Z"/><path id="J" class="cls-212" d="M37.6462,18.63H37.77v6.1131h-.1235Z"/><path class="cls-213" d="M37.708,18.63h.1235v6.1131H37.708Z"/><path class="cls-214" d="M37.8315,18.63h.1235v6.1131h-.1235Z"/><path class="cls-215" d="M37.955,18.63h.1235v6.1131H37.955Z"/><path class="cls-3" d="M38.0167,18.63H38.14v6.1131h-.1235Z"/><path class="cls-4" d="M38.14,18.63h.1235v6.1131H38.14Z"/><path class="cls-5" d="M38.2019,18.63h.1235v6.1131h-.1235Z"/><path class="cls-6" d="M38.3254,18.63h.1235v6.1131h-.1235Z"/><path class="cls-7" d="M38.4489,18.63h.1235v6.1131h-.1235Z"/><path class="cls-8" d="M38.5107,18.63h.1235v6.1131h-.1235Z"/><path class="cls-9" d="M38.6342,18.63h.1235v6.1131h-.1235Z"/><path class="cls-10" d="M38.6959,18.63h.1235v6.1131h-.1235Z"/><path class="cls-11" d="M38.8194,18.63h.1235v6.1131h-.1235Z"/><path class="cls-12" d="M38.9429,18.63h.1235v6.1131h-.1235Z"/><path class="cls-13" d="M39.0047,18.63h.1235v6.1131h-.1235Z"/><path class="cls-14" d="M39.1282,18.63h.1235v6.1131h-.1235Z"/><path class="cls-15" d="M39.19,18.63h.1235v6.1131H39.19Z"/><path class="cls-16" d="M39.3134,18.63h.1235v6.1131h-.1235Z"/><path class="cls-17" d="M39.4369,18.63H39.56v6.1131h-.1235Z"/><path class="cls-18" d="M39.4987,18.63h.1235v6.1131h-.1235Z"/><path class="cls-19" d="M39.6222,18.63h.1235v6.1131h-.1235Z"/><path class="cls-20" d="M39.7457,18.63h.1235v6.1131h-.1235Z"/><path class="cls-21" d="M39.8074,18.63h.1235v6.1131h-.1235Z"/><path class="cls-22" d="M39.9309,18.63h.1235v6.1131h-.1235Z"/><path class="cls-23" d="M39.9927,18.63h.1235v6.1131h-.1235Z"/><path class="cls-24" d="M40.1162,18.63H40.24v6.1131h-.1235Z"/><path class="cls-25" d="M40.24,18.63h.1235v6.1131H40.24Z"/><path class="cls-26" d="M40.3014,18.63h.1235v6.1131h-.1235Z"/><path class="cls-27" d="M40.4249,18.63h.1235v6.1131h-.1235Z"/><path class="cls-28" d="M40.4866,18.63H40.61v6.1131h-.1235Z"/><path class="cls-29" d="M40.61,18.63h.1235v6.1131H40.61Z"/><path class="cls-30" d="M40.7336,18.63h.1235v6.1131h-.1235Z"/><path class="cls-31" d="M40.7954,18.63h.1235v6.1131h-.1235Z"/><path class="cls-32" d="M40.9189,18.63h.1235v6.1131h-.1235Z"/><path class="cls-33" d="M40.9806,18.63h.1235v6.1131h-.1235Z"/><path class="cls-34" d="M41.1041,18.63h.1235v6.1131h-.1235Z"/><path class="cls-35" d="M41.2276,18.63h.1235v6.1131h-.1235Z"/><path class="cls-36" d="M41.2894,18.63h.1235v6.1131h-.1235Z"/><path class="cls-37" d="M41.4129,18.63h.1235v6.1131h-.1235Z"/><path class="cls-38" d="M41.4746,18.63h.1235v6.1131h-.1235Z"/><path class="cls-39" d="M41.5981,18.63h.1235v6.1131h-.1235Z"/><path class="cls-40" d="M41.7216,18.63h.1235v6.1131h-.1235Z"/><path class="cls-40" d="M41.7834,18.63h1.9759v6.1131H41.7834Z"/><path class="cls-11" d="M38.8812,14.1838h.0617v7.3481h-.0617Z"/><path id="K" class="cls-12" d="M38.9429,14.1838h.1235v7.3481h-.1235Z"/><path class="cls-13" d="M39.0047,14.1838h.1235v7.3481h-.1235Z"/><path class="cls-14" d="M39.1282,14.1838h.1235v7.3481h-.1235Z"/><path class="cls-15" d="M39.19,14.1838h.1235v7.3481H39.19Z"/><path class="cls-16" d="M39.3134,14.1838h.1235v7.3481h-.1235Z"/><path class="cls-17" d="M39.4369,14.1838H39.56v7.3481h-.1235Z"/><path class="cls-18" d="M39.4987,14.1838h.1235v7.3481h-.1235Z"/><path class="cls-19" d="M39.6222,14.1838h.1235v7.3481h-.1235Z"/><path class="cls-20" d="M39.7457,14.1838h.1235v7.3481h-.1235Z"/><path class="cls-21" d="M39.8074,14.1838h.1235v7.3481h-.1235Z"/><path class="cls-22" d="M39.9309,14.1838h.1235v7.3481h-.1235Z"/><path class="cls-23" d="M39.9927,14.1838h.1235v7.3481h-.1235Z"/><path class="cls-24" d="M40.1162,14.1838H40.24v7.3481h-.1235Z"/><path class="cls-25" d="M40.24,14.1838h.1235v7.3481H40.24Z"/><path class="cls-26" d="M40.3014,14.1838h.1235v7.3481h-.1235Z"/><path class="cls-27" d="M40.4249,14.1838h.1235v7.3481h-.1235Z"/><path class="cls-28" d="M40.4866,14.1838H40.61v7.3481h-.1235Z"/><path class="cls-29" d="M40.61,14.1838h.1235v7.3481H40.61Z"/><path class="cls-30" d="M40.7336,14.1838h.1235v7.3481h-.1235Z"/><path class="cls-31" d="M40.7954,14.1838h.1235v7.3481h-.1235Z"/><path class="cls-32" d="M40.9189,14.1838h.1235v7.3481h-.1235Z"/><path class="cls-33" d="M40.9806,14.1838h.1235v7.3481h-.1235Z"/><path class="cls-34" d="M41.1041,14.1838h.1235v7.3481h-.1235Z"/><path class="cls-35" d="M41.2276,14.1838h.1235v7.3481h-.1235Z"/><path class="cls-36" d="M41.2894,14.1838h.1235v7.3481h-.1235Z"/><path class="cls-37" d="M41.4129,14.1838h.1235v7.3481h-.1235Z"/><path class="cls-38" d="M41.4746,14.1838h.1235v7.3481h-.1235Z"/><path class="cls-39" d="M41.5981,14.1838h.1235v7.3481h-.1235Z"/><path class="cls-40" d="M41.7216,14.1838h.1235v7.3481h-.1235Z"/><path class="cls-40" d="M41.7834,14.1838H44.13v7.3481H41.7834Z"/><path class="cls-41" d="M14.7992,5.1067H25.667v34.641H14.7992Z"/><path id="L" class="cls-41" d="M25.667,5.1067h.0617v34.641H25.667Z"/><path class="cls-42" d="M25.7287,5.1067h.0618v34.641h-.0618Z"/><path class="cls-43" d="M25.7905,5.1067h.0617v34.641h-.0617Z"/><path class="cls-44" d="M25.8522,5.1067h.0618v34.641h-.0618Z"/><path class="cls-45" d="M25.914,5.1067h.0617v34.641H25.914Z"/><path class="cls-46" d="M25.9757,5.1067h.0618v34.641h-.0618Z"/><path class="cls-47" d="M26.0375,5.1067h.0617v34.641h-.0617Z"/><path class="cls-48" d="M26.0992,5.1067h.0618v34.641h-.0618Z"/><path class="cls-49" d="M26.161,5.1067h.0617v34.641H26.161Z"/><path class="cls-50" d="M26.2227,5.1067h.0618v34.641h-.0618Z"/><path class="cls-51" d="M26.2845,5.1067h.0617v34.641h-.0617Z"/><path class="cls-52" d="M26.3462,5.1067h.0618v34.641h-.0618Z"/><path class="cls-53" d="M26.408,5.1067H26.47v34.641H26.408Z"/><path class="cls-54" d="M26.47,5.1067h.0618v34.641H26.47Z"/><path class="cls-55" d="M26.5314,5.1067h.0618v34.641h-.0618Z"/><path class="cls-56" d="M26.5932,5.1067h.0617v34.641h-.0617Z"/><path class="cls-57" d="M26.6549,5.1067h.0618v34.641h-.0618Z"/><path class="cls-58" d="M26.7167,5.1067h.0617v34.641h-.0617Z"/><path class="cls-59" d="M26.7784,5.1067H26.84v34.641h-.0618Z"/><path class="cls-60" d="M26.84,5.1067h.0617v34.641H26.84Z"/><path class="cls-61" d="M26.9019,5.1067h.0618v34.641h-.0618Z"/><path class="cls-62" d="M26.9637,5.1067h.0617v34.641h-.0617Z"/><path class="cls-63" d="M27.0254,5.1067h.0618v34.641h-.0618Z"/><path class="cls-64" d="M27.0872,5.1067h.0617v34.641h-.0617Z"/><path class="cls-65" d="M27.1489,5.1067h.0618v34.641h-.0618Z"/><path class="cls-66" d="M27.2107,5.1067h.0617v34.641h-.0617Z"/><path class="cls-67" d="M27.2724,5.1067h.0618v34.641h-.0618Z"/><path class="cls-68" d="M27.3342,5.1067h.0617v34.641h-.0617Z"/><path class="cls-69" d="M27.3959,5.1067h.0618v34.641h-.0618Z"/><path class="cls-70" d="M27.4577,5.1067h.0617v34.641h-.0617Z"/><path class="cls-71" d="M27.5194,5.1067h.0618v34.641h-.0618Z"/><path class="cls-72" d="M27.5812,5.1067h.0617v34.641h-.0617Z"/><path class="cls-73" d="M27.6429,5.1067h.0618v34.641h-.0618Z"/><path class="cls-74" d="M27.7047,5.1067h.0617v34.641h-.0617Z"/><path class="cls-75" d="M27.7664,5.1067h.0618v34.641h-.0618Z"/><path class="cls-76" d="M27.8282,5.1067H27.89v34.641h-.0617Z"/><path class="cls-77" d="M27.8282,5.1067H27.89v34.641h-.0617Z"/><path class="cls-78" d="M27.89,5.1067h.0618v34.641H27.89Z"/><path class="cls-79" d="M27.9517,5.1067h.0617v34.641h-.0617Z"/><path class="cls-80" d="M28.0134,5.1067h.0618v34.641h-.0618Z"/><path class="cls-81" d="M28.0752,5.1067h.0617v34.641h-.0617Z"/><path class="cls-82" d="M28.1369,5.1067h.0618v34.641h-.0618Z"/><path class="cls-83" d="M28.1987,5.1067H28.26v34.641h-.0617Z"/><path class="cls-84" d="M28.26,5.1067h.0618v34.641H28.26Z"/><path class="cls-85" d="M28.3222,5.1067h.0617v34.641h-.0617Z"/><path class="cls-86" d="M28.3839,5.1067h.0618v34.641h-.0618Z"/><path class="cls-87" d="M28.4457,5.1067h.0617v34.641h-.0617Z"/><path class="cls-88" d="M28.5074,5.1067h.0618v34.641h-.0618Z"/><path class="cls-89" d="M28.5692,5.1067h.0617v34.641h-.0617Z"/><path class="cls-90" d="M28.6309,5.1067h.0618v34.641h-.0618Z"/><path class="cls-91" d="M28.6927,5.1067h.0617v34.641h-.0617Z"/><path class="cls-92" d="M28.7544,5.1067h.0618v34.641h-.0618Z"/><path class="cls-93" d="M28.8162,5.1067h.0617v34.641h-.0617Z"/><path class="cls-94" d="M28.8779,5.1067H28.94v34.641h-.0617Z"/><path class="cls-95" d="M28.94,5.1067h.0618v34.641H28.94Z"/><path class="cls-96" d="M29.0014,5.1067h.0617v34.641h-.0617Z"/><path class="cls-97" d="M29.0631,5.1067h.0618v34.641h-.0618Z"/><path class="cls-98" d="M29.1249,5.1067h.0617v34.641h-.0617Z"/><path class="cls-99" d="M29.1866,5.1067h.0618v34.641h-.0618Z"/><path class="cls-100" d="M29.2484,5.1067H29.31v34.641h-.0617Z"/><path class="cls-101" d="M29.31,5.1067h.0618v34.641H29.31Z"/><path class="cls-102" d="M29.3719,5.1067h.0617v34.641h-.0617Z"/><path class="cls-103" d="M29.4336,5.1067h.0618v34.641h-.0618Z"/><path class="cls-104" d="M29.4954,5.1067h.0617v34.641h-.0617Z"/><path class="cls-105" d="M29.5571,5.1067h.0618v34.641h-.0618Z"/><path class="cls-106" d="M29.6189,5.1067h.0617v34.641h-.0617Z"/><path class="cls-107" d="M29.6806,5.1067h.0618v34.641h-.0618Z"/><path class="cls-108" d="M29.7424,5.1067h.0617v34.641h-.0617Z"/><path class="cls-109" d="M29.8041,5.1067h.0618v34.641h-.0618Z"/><path class="cls-110" d="M29.8659,5.1067h.0617v34.641h-.0617Z"/><path class="cls-111" d="M29.9276,5.1067h.0618v34.641h-.0618Z"/><path class="cls-112" d="M29.9894,5.1067h.0617v34.641h-.0617Z"/><path class="cls-113" d="M30.0511,5.1067h.0618v34.641h-.0618Z"/><path class="cls-114" d="M30.1129,5.1067h.0617v34.641h-.0617Z"/><path class="cls-115" d="M30.1746,5.1067h.0618v34.641h-.0618Z"/><path class="cls-116" d="M30.2364,5.1067h.0617v34.641h-.0617Z"/><path class="cls-117" d="M30.2981,5.1067H30.36v34.641h-.0618Z"/><path class="cls-118" d="M30.36,5.1067h.0617v34.641H30.36Z"/><path class="cls-119" d="M30.4216,5.1067h.0618v34.641h-.0618Z"/><path class="cls-120" d="M30.4834,5.1067h.0617v34.641h-.0617Z"/><path class="cls-121" d="M30.5451,5.1067h.0618v34.641h-.0618Z"/><path class="cls-122" d="M30.6069,5.1067h.0617v34.641h-.0617Z"/><path class="cls-123" d="M30.6069,5.1067h.0617v34.641h-.0617Z"/><path class="cls-124" d="M30.6686,5.1067H30.73v34.641h-.0618Z"/><path class="cls-125" d="M30.73,5.1067h.0617v34.641H30.73Z"/><path class="cls-126" d="M30.7921,5.1067h.0618v34.641h-.0618Z"/><path class="cls-127" d="M30.8539,5.1067h.0617v34.641h-.0617Z"/><path class="cls-128" d="M30.9156,5.1067h.0618v34.641h-.0618Z"/><path class="cls-129" d="M30.9774,5.1067h.0617v34.641h-.0617Z"/><path class="cls-130" d="M31.0391,5.1067h.0617v34.641h-.0617Z"/><path class="cls-131" d="M31.1009,5.1067h.0617v34.641h-.0617Z"/><path class="cls-132" d="M31.1626,5.1067h.0617v34.641h-.0617Z"/><path class="cls-133" d="M31.2243,5.1067h.0618v34.641h-.0618Z"/><path class="cls-134" d="M31.2861,5.1067h.0617v34.641h-.0617Z"/><path class="cls-135" d="M31.3478,5.1067H31.41v34.641h-.0618Z"/><path class="cls-136" d="M31.41,5.1067h.0617v34.641H31.41Z"/><path class="cls-137" d="M31.4713,5.1067h.0618v34.641h-.0618Z"/><path class="cls-138" d="M31.5331,5.1067h.0617v34.641h-.0617Z"/><path class="cls-139" d="M31.5948,5.1067h.0618v34.641h-.0618Z"/><path class="cls-140" d="M31.6566,5.1067h.0617v34.641h-.0617Z"/><path class="cls-141" d="M31.7183,5.1067H31.78v34.641h-.0618Z"/><path class="cls-142" d="M31.78,5.1067h.0617v34.641H31.78Z"/><path class="cls-143" d="M31.8418,5.1067h.0618v34.641h-.0618Z"/><path class="cls-144" d="M31.9036,5.1067h.0617v34.641h-.0617Z"/><path class="cls-145" d="M31.9653,5.1067h.0618v34.641h-.0618Z"/><path class="cls-146" d="M32.0271,5.1067h.0617v34.641h-.0617Z"/><path class="cls-147" d="M32.0888,5.1067h.0618v34.641h-.0618Z"/><path class="cls-148" d="M32.1506,5.1067h.0617v34.641h-.0617Z"/><path class="cls-149" d="M32.2123,5.1067h.0618v34.641h-.0618Z"/><path class="cls-150" d="M32.2741,5.1067h.0617v34.641h-.0617Z"/><path class="cls-151" d="M32.3358,5.1067h.0618v34.641h-.0618Z"/><path class="cls-152" d="M32.3976,5.1067h.0617v34.641h-.0617Z"/><path class="cls-153" d="M32.4593,5.1067h.0618v34.641h-.0618Z"/><path class="cls-154" d="M32.5211,5.1067h.0617v34.641h-.0617Z"/><path class="cls-155" d="M32.5828,5.1067h.0618v34.641h-.0618Z"/><path class="cls-156" d="M32.6446,5.1067h.0617v34.641h-.0617Z"/><path class="cls-157" d="M32.7063,5.1067h.0618v34.641h-.0618Z"/><path class="cls-158" d="M32.7681,5.1067H32.83v34.641h-.0617Z"/><path class="cls-159" d="M32.83,5.1067h.0618v34.641H32.83Z"/><path class="cls-160" d="M32.8916,5.1067h.0617v34.641h-.0617Z"/><path class="cls-161" d="M32.9533,5.1067h.0618v34.641h-.0618Z"/><path class="cls-162" d="M33.0151,5.1067h.0617v34.641h-.0617Z"/><path class="cls-163" d="M33.0768,5.1067h.0618v34.641h-.0618Z"/><path class="cls-164" d="M33.1386,5.1067H33.2v34.641h-.0617Z"/><path class="cls-165" d="M33.2,5.1067h.0618v34.641H33.2Z"/><path class="cls-166" d="M33.2621,5.1067h.0617v34.641h-.0617Z"/><path class="cls-167" d="M33.3238,5.1067h.0618v34.641h-.0618Z"/><path class="cls-168" d="M33.3856,5.1067h.0617v34.641h-.0617Z"/><path class="cls-169" d="M33.4473,5.1067h.0617v34.641h-.0617Z"/><path class="cls-170" d="M33.4473,5.1067h.0617v34.641h-.0617Z"/><path class="cls-171" d="M33.509,5.1067h.0618v34.641H33.509Z"/><path class="cls-172" d="M33.5708,5.1067h.0617v34.641h-.0617Z"/><path id="M" class="cls-172" d="M33.6325,5.1067h.1235v34.641h-.1235Z"/><path class="cls-173" d="M33.756,5.1067H33.88v34.641H33.756Z"/><path class="cls-174" d="M33.88,5.1067h.1235v34.641H33.88Z"/><path class="cls-175" d="M33.9413,5.1067h.1235v34.641h-.1235Z"/><path class="cls-176" d="M34.0648,5.1067h.1235v34.641h-.1235Z"/><path class="cls-177" d="M34.1265,5.1067H34.25v34.641h-.1235Z"/><path class="cls-178" d="M34.25,5.1067h.1235v34.641H34.25Z"/><path class="cls-179" d="M34.3735,5.1067h.1235v34.641h-.1235Z"/><path class="cls-180" d="M34.4353,5.1067h.1235v34.641h-.1235Z"/><path class="cls-181" d="M34.5588,5.1067h.1235v34.641h-.1235Z"/><path class="cls-182" d="M34.6205,5.1067h.1235v34.641h-.1235Z"/><path class="cls-183" d="M34.744,5.1067h.1235v34.641H34.744Z"/><path class="cls-184" d="M34.8675,5.1067h.1235v34.641h-.1235Z"/><path class="cls-185" d="M34.9293,5.1067h.1235v34.641h-.1235Z"/><path class="cls-186" d="M35.0528,5.1067h.1235v34.641h-.1235Z"/><path class="cls-187" d="M35.1763,5.1067H35.3v34.641h-.1235Z"/><path class="cls-188" d="M35.238,5.1067h.1235v34.641H35.238Z"/><path class="cls-189" d="M35.3615,5.1067h.1235v34.641h-.1235Z"/><path class="cls-190" d="M35.4233,5.1067h.1235v34.641h-.1235Z"/><path class="cls-191" d="M35.5468,5.1067H35.67v34.641h-.1235Z"/><path class="cls-192" d="M35.67,5.1067h.1234v34.641H35.67Z"/><path class="cls-193" d="M35.732,5.1067h.1235v34.641H35.732Z"/><path class="cls-194" d="M35.8555,5.1067h.1235v34.641h-.1235Z"/><path class="cls-195" d="M35.9172,5.1067h.1235v34.641h-.1235Z"/><path class="cls-196" d="M36.0407,5.1067h.1235v34.641h-.1235Z"/><path class="cls-197" d="M36.1642,5.1067h.1235v34.641h-.1235Z"/><path class="cls-198" d="M36.226,5.1067H36.35v34.641H36.226Z"/><path class="cls-199" d="M36.35,5.1067h.1235v34.641H36.35Z"/><path class="cls-200" d="M36.4112,5.1067h.1235v34.641h-.1235Z"/><path class="cls-201" d="M36.5347,5.1067h.1235v34.641h-.1235Z"/><path class="cls-202" d="M36.6582,5.1067h.1235v34.641h-.1235Z"/><path class="cls-203" d="M36.72,5.1067h.1235v34.641H36.72Z"/><path class="cls-204" d="M36.8435,5.1067h.1235v34.641h-.1235Z"/><path class="cls-205" d="M36.9052,5.1067h.1235v34.641h-.1235Z"/><path class="cls-206" d="M37.0287,5.1067h.1235v34.641h-.1235Z"/><path class="cls-207" d="M37.1522,5.1067h.1235v34.641h-.1235Z"/><path class="cls-208" d="M37.214,5.1067h.1235v34.641H37.214Z"/><path class="cls-209" d="M37.3375,5.1067h.1235v34.641h-.1235Z"/><path class="cls-210" d="M37.461,5.1067h.1235v34.641H37.461Z"/><path class="cls-211" d="M37.5227,5.1067h.1235v34.641h-.1235Z"/><path class="cls-212" d="M37.6462,5.1067H37.77v34.641h-.1235Z"/><path class="cls-213" d="M37.708,5.1067h.1235v34.641H37.708Z"/><path class="cls-214" d="M37.8315,5.1067h.1235v34.641h-.1235Z"/><path class="cls-215" d="M37.955,5.1067h.1235v34.641H37.955Z"/><path class="cls-3" d="M38.0167,5.1067H38.14v34.641h-.1235Z"/><path class="cls-4" d="M38.14,5.1067h.1235v34.641H38.14Z"/><path class="cls-5" d="M38.2019,5.1067h.1235v34.641h-.1235Z"/><path class="cls-6" d="M38.3254,5.1067h.1235v34.641h-.1235Z"/><path class="cls-7" d="M38.4489,5.1067h.1235v34.641h-.1235Z"/><path class="cls-8" d="M38.5107,5.1067h.1235v34.641h-.1235Z"/><path class="cls-9" d="M38.6342,5.1067h.1235v34.641h-.1235Z"/><path class="cls-10" d="M38.6959,5.1067h.1235v34.641h-.1235Z"/><path class="cls-11" d="M38.8194,5.1067h.1235v34.641h-.1235Z"/><path class="cls-12" d="M38.9429,5.1067h.1235v34.641h-.1235Z"/><path class="cls-13" d="M39.0047,5.1067h.1235v34.641h-.1235Z"/><path class="cls-14" d="M39.1282,5.1067h.1235v34.641h-.1235Z"/><path class="cls-15" d="M39.19,5.1067h.1235v34.641H39.19Z"/><path class="cls-16" d="M39.3134,5.1067h.1235v34.641h-.1235Z"/><path class="cls-17" d="M39.4369,5.1067H39.56v34.641h-.1235Z"/><path class="cls-18" d="M39.4987,5.1067h.1235v34.641h-.1235Z"/><path class="cls-19" d="M39.6222,5.1067h.1235v34.641h-.1235Z"/><path class="cls-20" d="M39.7457,5.1067h.1235v34.641h-.1235Z"/><path class="cls-21" d="M39.8074,5.1067h.1235v34.641h-.1235Z"/><path class="cls-22" d="M39.9309,5.1067h.1235v34.641h-.1235Z"/><path class="cls-23" d="M39.9927,5.1067h.1235v34.641h-.1235Z"/><path class="cls-24" d="M40.1162,5.1067H40.24v34.641h-.1235Z"/><path class="cls-25" d="M40.24,5.1067h.1235v34.641H40.24Z"/><path class="cls-26" d="M40.3014,5.1067h.1235v34.641h-.1235Z"/><path class="cls-27" d="M40.4249,5.1067h.1235v34.641h-.1235Z"/><path class="cls-28" d="M40.4866,5.1067H40.61v34.641h-.1235Z"/><path class="cls-29" d="M40.61,5.1067h.1235v34.641H40.61Z"/><path class="cls-30" d="M40.7336,5.1067h.1235v34.641h-.1235Z"/><path class="cls-31" d="M40.7954,5.1067h.1235v34.641h-.1235Z"/><path class="cls-32" d="M40.9189,5.1067h.1235v34.641h-.1235Z"/><path class="cls-33" d="M40.9806,5.1067h.1235v34.641h-.1235Z"/><path class="cls-34" d="M41.1041,5.1067h.1235v34.641h-.1235Z"/><path class="cls-35" d="M41.2276,5.1067h.1235v34.641h-.1235Z"/><path class="cls-36" d="M41.2894,5.1067h.1235v34.641h-.1235Z"/><path class="cls-37" d="M41.4129,5.1067h.1235v34.641h-.1235Z"/><path class="cls-38" d="M41.4746,5.1067h.1235v34.641h-.1235Z"/><path class="cls-39" d="M41.5981,5.1067h.1235v34.641h-.1235Z"/><path class="cls-40" d="M41.7216,5.1067h.1235v34.641h-.1235Z"/><path class="cls-40" d="M41.7834,5.1067h4.5694v34.641H41.7834Z"/></g><path class="cls-40" d="M47.9854,26.5335V22.6452h7.6383v3.8883Zm9.9354,5.4092V11.6583H71.8266V15.09H62.0159v4.801h8.4683v3.432H62.0159v8.62ZM74.3725,21.9252a12.8991,12.8991,0,0,1,.9268-5.2023,9.5507,9.5507,0,0,1,1.8889-2.7812A7.8977,7.8977,0,0,1,79.81,12.1152a11.1366,11.1366,0,0,1,4.3724-.8027,9.5272,9.5272,0,0,1,7.1752,2.7811q2.6922,2.7811,2.691,7.7347,0,4.9121-2.6707,7.6864a9.4507,9.4507,0,0,1-7.14,2.7744,9.5461,9.5461,0,0,1-7.1949-2.76,10.4734,10.4734,0,0,1-2.67-7.6037Zm4.22-.1383a7.6023,7.6023,0,0,0,1.5912,5.2239,5.47,5.47,0,0,0,7.7286.344q.1726-.1579.3315-.33a7.7513,7.7513,0,0,0,1.57-5.2918A7.6266,7.6266,0,0,0,88.2851,16.53a5.6649,5.6649,0,0,0-8.01-.112q-.0674.0654-.1323.133a7.6857,7.6857,0,0,0-1.5437,5.2375ZM97.2158,11.6583h4.0958V22.6446a22.7617,22.7617,0,0,0,.1525,3.39,3.2833,3.2833,0,0,0,1.2522,1.9994,4.3616,4.3616,0,0,0,2.7052.754,4.1277,4.1277,0,0,0,2.6287-.7126,2.8156,2.8156,0,0,0,1.0651-1.7506,22.8338,22.8338,0,0,0,.18-3.4456V11.6583h4.0958V22.3124a27.3687,27.3687,0,0,1-.3322,5.1609,5.7112,5.7112,0,0,1-1.2245,2.5459,6.1855,6.1855,0,0,1-2.3865,1.6537,10.3868,10.3868,0,0,1-3.9019.6156,11.2371,11.2371,0,0,1-4.407-.6712,6.299,6.299,0,0,1-2.373-1.7432,5.5868,5.5868,0,0,1-1.1486-2.2483,24.6262,24.6262,0,0,1-.4013-5.1473ZM117.749,31.9427V11.6583h3.9853l8.3021,13.5458V11.6583h3.805V31.9427H129.732l-8.1768-13.2266V31.9427Zm20.4092-20.2844h7.4864a14.6256,14.6256,0,0,1,3.8606.3871,6.7873,6.7873,0,0,1,3.0577,1.8679A8.8662,8.8662,0,0,1,154.5,17.2a14.9667,14.9667,0,0,1,.6644,4.7942,13.3274,13.3274,0,0,1-.6224,4.3168,8.9434,8.9434,0,0,1-2.1723,3.5839,7.2009,7.2009,0,0,1-2.8781,1.619,12.39,12.39,0,0,1-3.6253.4292h-7.7075ZM142.254,15.09V28.5249h3.0578a11.1506,11.1506,0,0,0,2.4767-.1939,3.78,3.78,0,0,0,1.6537-.8441,4.2947,4.2947,0,0,0,1.0725-1.958,13.2317,13.2317,0,0,0,.415-3.7155,12.1214,12.1214,0,0,0-.415-3.6116,4.642,4.642,0,0,0-1.1621-1.9649,3.8975,3.8975,0,0,0-1.8957-.9546,18.5762,18.5762,0,0,0-3.3622-.1939Zm16.3819,16.8531V11.6583h15.04V15.09H162.7311v4.4972h10.1836v3.4178H162.7311v5.52h11.3321v3.4178Zm18.9149,0V11.6583h8.62a14.7568,14.7568,0,0,1,4.725.5464,4.6636,4.6636,0,0,1,2.3588,1.9439,5.8456,5.8456,0,0,1,.8855,3.1961,5.4162,5.4162,0,0,1-1.3418,3.77,6.4458,6.4458,0,0,1-4.0125,1.8747,9.5632,9.5632,0,0,1,2.1934,1.7017,23.1367,23.1367,0,0,1,2.3316,3.2931l2.4761,3.9581h-4.8985l-2.9609-4.4138a28.6215,28.6215,0,0,0-2.1587-2.9818,3.1451,3.1451,0,0,0-1.2313-.8441,6.7521,6.7521,0,0,0-2.0618-.2285h-.83v8.4682Zm4.0958-11.7057h3.03a15.6468,15.6468,0,0,0,3.6808-.2488,2.2054,2.2054,0,0,0,1.1485-.8577,2.6409,2.6409,0,0,0,.415-1.5221,2.433,2.433,0,0,0-.5465-1.6537,2.5094,2.5094,0,0,0-1.5425-.7953q-.4983-.0691-2.9886-.0692h-3.1961Zm15.3173,5.1066,3.9853-.3871a4.8608,4.8608,0,0,0,1.46,2.9472,4.4128,4.4128,0,0,0,2.9683.9411,4.5618,4.5618,0,0,0,2.9819-.8373,2.4907,2.4907,0,0,0,1.0034-1.9581,1.848,1.848,0,0,0-.4218-1.2245,3.3766,3.3766,0,0,0-1.4739-.8787q-.7194-.2489-3.2789-.8854a11.1162,11.1162,0,0,1-4.6212-2.0069,5.2775,5.2775,0,0,1-1.8679-4.0816,5.2136,5.2136,0,0,1,.8786-2.8984,5.5,5.5,0,0,1,2.5324-2.055,10.1457,10.1457,0,0,1,3.992-.7058q3.8192,0,5.7426,1.6734a5.91,5.91,0,0,1,2.0272,4.4693l-4.0958.1791a3.48,3.48,0,0,0-1.1275-2.2483,4.13,4.13,0,0,0-2.594-.6848,4.68,4.68,0,0,0-2.7948.7336,1.4778,1.4778,0,0,0-.65,1.2591,1.558,1.558,0,0,0,.6088,1.2312,10.7716,10.7716,0,0,0,3.7636,1.356,19.8648,19.8648,0,0,1,4.4206,1.46,5.6987,5.6987,0,0,1,2.2415,2.0618,6.3857,6.3857,0,0,1-.1593,6.4966,5.8038,5.8038,0,0,1-2.74,2.2624,11.492,11.492,0,0,1-4.4138.74,8.7844,8.7844,0,0,1-5.9081-1.7784,7.7367,7.7367,0,0,1-2.4626-5.1819ZM181.4057,38.1151a3.7174,3.7174,0,0,1-.1185.9775,2.1739,2.1739,0,0,1-.3483.74,1.5382,1.5382,0,0,1-.5637.4687,1.7317,1.7317,0,0,1-.7657.1624,1.6267,1.6267,0,0,1-.3693-.0395,1.3239,1.3239,0,0,1-.3316-.1278,2.03,2.03,0,0,1-.3248-.2229,4.036,4.036,0,0,1-.3433-.3248V40.26a.1148.1148,0,0,1-.0185.0649.1239.1239,0,0,1-.0605.0444.494.494,0,0,1-.1044.0253,1.3638,1.3638,0,0,1-.318,0,.4971.4971,0,0,1-.1068-.0253.0979.0979,0,0,1-.0556-.0444.144.144,0,0,1-.0142-.0649v-6.202a.1263.1263,0,0,1,.0161-.0648.12.12,0,0,1,.0605-.0464.4635.4635,0,0,1,.1185-.0277,1.5189,1.5189,0,0,1,.1859-.0093,1.5907,1.5907,0,0,1,.19.0093.4259.4259,0,0,1,.1161.0277.1371.1371,0,0,1,.0605.0464.1151.1151,0,0,1,.0185.0648V36.56a3.1008,3.1008,0,0,1,.36-.32,2.1305,2.1305,0,0,1,.3415-.2112,1.5114,1.5114,0,0,1,.334-.1186,1.62,1.62,0,0,1,.3526-.037,1.5658,1.5658,0,0,1,.7774.1809,1.5029,1.5029,0,0,1,.5249.4853,2.1283,2.1283,0,0,1,.2945.7126,3.886,3.886,0,0,1,.0926.8633Zm-.7934.0883a3.8876,3.8876,0,0,0-.0488-.6218,1.7532,1.7532,0,0,0-.1705-.5341,1.0368,1.0368,0,0,0-.3223-.3736.846.846,0,0,0-.4995-.1414,1.0557,1.0557,0,0,0-.294.042,1.099,1.099,0,0,0-.2945.1395,2.2069,2.2069,0,0,0-.3106.2507,3.6159,3.6159,0,0,0-.3433.3853v1.6672a3.1654,3.1654,0,0,0,.607.5873,1.0382,1.0382,0,0,0,.6027.2019.86.86,0,0,0,.4952-.14,1.0623,1.0623,0,0,0,.334-.3692,1.779,1.779,0,0,0,.1871-.515,2.8772,2.8772,0,0,0,.0587-.578Zm3.821,2.1723-.557,1.5363a.2112.2112,0,0,1-.1414.1136,1.1309,1.1309,0,0,1-.3458.04,1.3135,1.3135,0,0,1-.1952-.0118.2686.2686,0,0,1-.1136-.04.0994.0994,0,0,1-.0438-.0741.2308.2308,0,0,1,.0234-.1111l.5755-1.453a.258.258,0,0,1-.13-.1488l-1.4906-3.9988a.4634.4634,0,0,1-.037-.1532.111.111,0,0,1,.037-.0883.2325.2325,0,0,1,.12-.0444,1.7117,1.7117,0,0,1,.2229-.0118q.14,0,.218.0062a.4538.4538,0,0,1,.1253.0253.1329.1329,0,0,1,.0674.0537.6574.6574,0,0,1,.0444.0951l1.193,3.3517h.0142l1.151-3.37a.207.207,0,0,1,.0673-.1136.308.308,0,0,1,.1186-.0371,1.6913,1.6913,0,0,1,.2272-.0117,1.6237,1.6237,0,0,1,.2137.0117.249.249,0,0,1,.1229.0445.1091.1091,0,0,1,.04.0883.4625.4625,0,0,1-.0278.14Zm9.1925-2.2186a2.7816,2.7816,0,0,1-.16.9768,2,2,0,0,1-.4569.7268,1.9272,1.9272,0,0,1-.7243.45,2.8641,2.8641,0,0,1-.97.1531,2.7074,2.7074,0,0,1-.9052-.1439,1.9138,1.9138,0,0,1-.7009-.4248,1.859,1.859,0,0,1-.45-.7033,2.773,2.773,0,0,1-.1581-.975V34.4892a.1143.1143,0,0,1,.0185-.0648.1247.1247,0,0,1,.0649-.0439.7077.7077,0,0,1,.12-.0277,1.3121,1.3121,0,0,1,.1951-.0118,1.3437,1.3437,0,0,1,.19.0118.6467.6467,0,0,1,.1229.0277.1242.1242,0,0,1,.0624.0439.1153.1153,0,0,1,.0185.0648V38.12a2.3385,2.3385,0,0,0,.1019.7287,1.3734,1.3734,0,0,0,.2945.5174,1.2266,1.2266,0,0,0,.4644.3112,1.687,1.687,0,0,0,.6107.1044,1.75,1.75,0,0,0,.62-.1019,1.1763,1.1763,0,0,0,.4594-.3063,1.3718,1.3718,0,0,0,.2878-.5057,2.2529,2.2529,0,0,0,.1-.7058V34.4905a.1148.1148,0,0,1,.0185-.0649.124.124,0,0,1,.0649-.0438.7064.7064,0,0,1,.1228-.0278,1.3216,1.3216,0,0,1,.1927-.0117,1.2886,1.2886,0,0,1,.1883.0117.6461.6461,0,0,1,.12.0278.1382.1382,0,0,1,.0648.0438.1052.1052,0,0,1,.021.0649Zm8.1335,2.0982a.1114.1114,0,0,1-.0191.0648.128.128,0,0,1-.0667.0445.7554.7554,0,0,1-.1217.0278,1.3086,1.3086,0,0,1-.1939.0117,1.3263,1.3263,0,0,1-.1889-.0117.673.673,0,0,1-.1247-.0278.1264.1264,0,0,1-.0643-.0445.1114.1114,0,0,1-.0191-.0648V35.024h-.0093l-2.1167,5.2486a.16.16,0,0,1-.04.0556.2082.2082,0,0,1-.0741.0395.5484.5484,0,0,1-.1161.0234,1.5536,1.5536,0,0,1-.16.0068,1.3,1.3,0,0,1-.1674-.0092.6075.6075,0,0,1-.1161-.0253.2065.2065,0,0,1-.0716-.04.12.12,0,0,1-.0346-.0512l-2.0241-5.2486h-.0049v5.2313a.1122.1122,0,0,1-.0192.0648.128.128,0,0,1-.0667.0445.7421.7421,0,0,1-.1241.0278,1.3628,1.3628,0,0,1-.1957.0117,1.3312,1.3312,0,0,1-.1914-.0117.6769.6769,0,0,1-.1217-.0278.1143.1143,0,0,1-.0624-.0445.1227.1227,0,0,1-.0166-.0648v-5.524a.3379.3379,0,0,1,.1037-.2785.359.359,0,0,1,.2309-.0834h.49a1.1132,1.1132,0,0,1,.2643.0278.5753.5753,0,0,1,.1982.0883.5158.5158,0,0,1,.1415.1531,1.1,1.1,0,0,1,.0988.218l1.7178,4.35h.0235l1.7876-4.336a1.2865,1.2865,0,0,1,.113-.2365.6111.6111,0,0,1,.1346-.1556.4645.4645,0,0,1,.1624-.0834.7646.7646,0,0,1,.2075-.0253h.5137a.43.43,0,0,1,.1346.021.2751.2751,0,0,1,.1087.0649.3375.3375,0,0,1,.0729.1111.4241.4241,0,0,1,.0284.1649Zm5.26-1.8241a2.4436,2.4436,0,0,1-.1211.7639,1.7674,1.7674,0,0,1-1.0071,1.1,2.2463,2.2463,0,0,1-.91.1692,2.1624,2.1624,0,0,1-.6638-.0926,1.5476,1.5476,0,0,1-.5014-.2643,1.45,1.45,0,0,1-.3551-.4223,2.4436,2.4436,0,0,1-.2272-.5712,4.3374,4.3374,0,0,1-.1229-.7009q-.037-.38-.037-.8169a7.39,7.39,0,0,1,.042-.78,4.3518,4.3518,0,0,1,.1481-.7613,3.1985,3.1985,0,0,1,.29-.6892,2.1254,2.1254,0,0,1,.4594-.5619,2.076,2.076,0,0,1,.6613-.3785,2.6311,2.6311,0,0,1,.896-.14,3.0846,3.0846,0,0,1,.673.0765,1.683,1.683,0,0,1,.2507.0766.6564.6564,0,0,1,.1346.0673.182.182,0,0,1,.0488.0556.3006.3006,0,0,1,.0253.0648.5193.5193,0,0,1,.0142.079q.0043.0446.0044.1093,0,.0834-.0025.1439a.2759.2759,0,0,1-.0185.0976.1333.1333,0,0,1-.042.0556.1116.1116,0,0,1-.0673.0185.4336.4336,0,0,1-.14-.0327q-.0884-.0329-.2136-.0723a2.5563,2.5563,0,0,0-.3039-.0722,2.3508,2.3508,0,0,0-.4155-.0328,1.4273,1.4273,0,0,0-1.2511.65,2.1507,2.1507,0,0,0-.2926.6892,4.02,4.02,0,0,0-.1093.8194q.12-.07.2717-.14a2.7324,2.7324,0,0,1,.33-.1253,2.9819,2.9819,0,0,1,.3785-.0908,2.4875,2.4875,0,0,1,.4273-.0346,2.2424,2.2424,0,0,1,.8219.1322,1.3329,1.3329,0,0,1,.8354.9194,2.57,2.57,0,0,1,.0883.69Zm-.8077.0741a2.0894,2.0894,0,0,0-.0531-.49.9263.9263,0,0,0-.1785-.3736.8113.8113,0,0,0-.334-.2365,1.3955,1.3955,0,0,0-.5156-.0834,1.9951,1.9951,0,0,0-.3433.03,2.3177,2.3177,0,0,0-.3323.0834,2.4465,2.4465,0,0,0-.3062.1253,2.1024,2.1024,0,0,0-.2668.1556,5.5134,5.5134,0,0,0,.0766,1.0028,1.99,1.99,0,0,0,.2229.6478.8611.8611,0,0,0,.3643.3482,1.1715,1.1715,0,0,0,.5107.1044,1.12,1.12,0,0,0,.515-.1112,1.0505,1.0505,0,0,0,.3618-.2995,1.2643,1.2643,0,0,0,.2112-.4223,1.7347,1.7347,0,0,0,.0673-.48Zm5.6914-2.3773a2.1246,2.1246,0,0,1-.1482.8126,1.7163,1.7163,0,0,1-.4249.6175,1.9019,1.9019,0,0,1-.678.3946,2.9353,2.9353,0,0,1-.9583.1389h-.6829v2.1631a.1052.1052,0,0,1-.021.0648.1389.1389,0,0,1-.0649.0445.6433.6433,0,0,1-.12.0278,1.6124,1.6124,0,0,1-.3853,0,.71.71,0,0,1-.1229-.0278.124.124,0,0,1-.0648-.0445.1128.1128,0,0,1-.0185-.0648V34.7121a.3216.3216,0,0,1,.0975-.2643.3381.3381,0,0,1,.218-.079h1.2856q.1952,0,.3736.0161a3.5042,3.5042,0,0,1,.4223.07,1.74,1.74,0,0,1,.4965.2,1.5735,1.5735,0,0,1,.4292.36,1.55,1.55,0,0,1,.2716.4946,1.9215,1.9215,0,0,1,.0951.62Zm-.84.0649a1.2478,1.2478,0,0,0-.1371-.6126.9537.9537,0,0,0-.339-.3668,1.1426,1.1426,0,0,0-.418-.1531,2.8248,2.8248,0,0,0-.42-.0327h-.7379v2.4094h.7194a1.6714,1.6714,0,0,0,.6014-.0926,1.13,1.13,0,0,0,.4014-.2575,1.08,1.08,0,0,0,.2457-.3946,1.45,1.45,0,0,0,.084-.4989Z"/></svg>